<svg width="112" height="110" viewBox="0 0 112 110" fill="none" xmlns="http://www.w3.org/2000/svg">
<rect width="112" height="110" rx="18" fill="#1C2536"/>
<g filter="url(#filter0_d_532_14)">
<path d="M80.8273 80.1352C78.2137 80.7625 75.7345 81.4104 73.2348 81.9308C71.9122 82.2075 71.418 83.3579 70.6033 84.1932C70.3746 84.4289 70.5647 84.7002 70.7071 84.9524C71.0876 85.6262 71.4816 86.2917 71.834 86.9844C72.5513 88.3946 72.0248 89.5739 70.7129 89.4869C67.9505 89.3022 65.3137 88.2733 62.7518 86.7357C62.0442 86.3103 61.3382 85.9151 60.8748 85.0618C60.605 84.5663 60.4517 84.0659 60.4687 83.5017C60.5414 80.8545 61.4246 78.7651 63.04 77.1748C63.5352 76.6884 64.101 76.6844 64.754 77.2826C65.4645 77.9344 65.5069 77.0395 65.8173 76.8003C66.1879 76.5132 65.8756 76.2701 65.6571 76.0287C65.3327 75.6689 65.2031 75.2208 65.2273 74.7376C65.3094 73.1606 65.2175 71.5043 65.5443 70.0324C65.818 68.7941 66.0732 67.4846 66.4992 66.3602C66.946 65.1796 67.7545 64.1494 68.6184 63.289C69.4646 62.4469 70.2494 61.5435 70.8615 60.436C70.9071 60.3553 70.9493 60.2624 71.0134 60.2092C72.2228 59.1957 72.9221 57.5607 74.1271 56.5441C74.5727 56.168 74.7355 55.5163 75.1135 55.0698C75.6896 54.3855 76.3331 53.7957 76.8991 53.0946C77.7133 52.0845 78.3385 50.8749 79.2956 50.0077C79.78 49.5702 80.2443 49.204 80.861 49.0697C83.2576 48.5459 85.6525 48.016 88.0028 47.3174C88.3876 47.2033 88.7659 47.0605 89.1827 47.0837C89.4348 47.097 89.6237 46.9754 89.7908 46.777C90.4942 45.9406 91.1497 45.1397 91.2616 43.7596C91.4202 41.809 92.2594 40.2631 93.4363 39.012C94.2065 38.1936 94.7341 38.1852 95.6377 39.0879C97.0561 40.5057 98.3157 42.1197 99.5221 43.7881C100.565 45.2299 101.53 46.7422 102.376 48.3517C102.683 48.9349 103.001 49.5435 102.726 50.177C102.418 50.883 101.912 51.1825 101.166 51.074C100.152 50.9261 99.1376 50.844 98.1371 50.4781C97.7501 50.3372 97.4795 50.4318 97.2365 50.7589C96.8444 51.2859 96.4341 51.7918 96.0138 52.2875C95.7991 52.541 95.7382 52.7288 96.0679 53.0084C96.5705 53.431 96.7133 54.0371 96.6693 54.6855C96.5711 56.1316 96.6166 57.6437 96.3049 58.9956C96.0089 60.2795 95.6849 61.5759 95.3075 62.8088C94.9602 63.9435 94.1417 64.8521 93.371 65.6749C92.4914 66.6162 91.6404 67.5712 90.9417 68.7209C90.6711 69.1673 90.3431 69.5733 89.949 69.8954C89.5808 70.1971 89.2728 70.5864 89.0241 71.0419C88.723 71.5975 88.3714 72.0998 87.8794 72.4368C87.757 72.5198 87.6349 72.6289 87.558 72.7666C86.4339 74.7587 84.7162 76.0766 83.5171 78.0026C82.8508 79.0623 82.0073 80.0806 80.8273 80.1352ZM72.7418 58.9537C72.8819 59.0252 72.9579 59.0757 73.038 59.1031C76.005 60.1537 78.9736 61.2039 81.9417 62.252C82.6718 62.5092 83.3562 62.8778 83.9567 63.5019C84.5389 64.1051 84.8073 64.8982 84.5559 65.3566C84.3189 65.7913 83.737 65.7015 83.0425 65.0998C82.5447 64.6693 82.0511 64.2288 81.4673 64.0216C78.8186 63.0747 76.1659 62.1508 73.5197 61.1879C71.0308 60.2828 71.4473 60.6688 70.0715 62.241C69.5845 62.7994 69.6329 62.932 70.3569 63.1866C73.2192 64.1972 76.0815 65.2077 78.9469 66.2043C79.7092 66.4698 80.4022 66.8993 80.9834 67.5792C81.3909 68.0574 81.7206 68.6888 81.4044 69.2596C81.0538 69.8949 80.5258 69.414 80.0819 69.1167C79.7877 68.9187 79.5098 68.6789 79.2247 68.4631C78.7415 68.0961 78.2249 67.8588 77.6906 67.6769C76.6493 67.3226 75.6101 66.9569 74.572 66.5886C72.8333 65.9744 71.0977 65.3462 69.3566 64.7479C68.7127 64.5273 68.1287 64.5911 67.7365 65.2842C69.4904 65.9028 71.2017 66.5074 72.914 67.1095C74.3764 67.6255 75.8551 68.0691 77.2992 68.6756C79.5137 69.6064 80.871 71.6186 81.7286 74.1447C81.9176 74.7026 82.0404 74.8555 82.3905 74.3974C83.0889 73.4815 83.8184 72.6005 84.533 71.7041C87.7697 67.6369 91.0065 63.5698 94.2438 59.5046C94.4423 59.2557 94.6597 59.0364 94.5308 58.5968C93.8844 56.3667 92.7955 54.5052 91.0177 53.334C89.685 52.4576 88.209 52.1902 86.7945 51.6693C84.9749 50.9994 83.1493 50.3706 81.3238 49.7418C80.7867 49.5563 80.2685 49.5358 79.8476 50.1037C79.9844 50.1696 80.0593 50.216 80.1376 50.2439C83.1271 51.2991 86.1165 52.3542 89.1059 53.4028C89.8201 53.6537 90.4704 54.0757 91.0559 54.6473C91.6099 55.1885 91.8576 56.0881 91.6157 56.5241C91.3882 56.9364 90.8494 56.8562 90.164 56.2432C89.5372 55.6812 88.8776 55.2575 88.141 55.0021C85.4899 54.0777 82.8412 53.1308 80.1909 52.1844C78.5481 51.5974 77.4419 52.1947 76.7895 54.0501C79.7165 55.0902 82.6388 56.1383 85.5624 57.1663C86.4411 57.4752 87.289 57.8496 88.009 58.621C88.5035 59.1508 88.7493 60.0378 88.5059 60.4437C88.2699 60.8387 87.7289 60.757 87.1024 60.2145C86.5687 59.7506 86.0315 59.2744 85.4099 59.0518C82.4239 57.9782 79.434 56.9276 76.4445 55.8659C76.0038 55.7097 75.5847 55.7221 75.195 55.9359C75.0263 56.0299 74.8282 56.1563 74.8489 56.4017C74.8715 56.6662 75.1196 56.6348 75.2747 56.6911C77.4986 57.4881 79.7276 58.2598 81.9491 59.0794C83.1081 59.5071 84.3071 59.7661 85.3935 60.5445C85.9558 60.9479 86.4296 61.4487 86.5779 62.2345C86.7161 62.9599 86.3861 63.3031 85.7879 63.0825C85.5994 63.0139 85.3857 62.9437 85.2389 62.7933C84.1162 61.6407 82.7753 61.2976 81.4631 60.8327C79.2163 60.0356 76.9709 59.225 74.7235 58.4258C73.9681 58.154 73.283 58.1657 72.7418 58.9537ZM66.6041 73.9407C67.7587 73.0871 68.8666 73.3415 69.9985 73.9212C71.6628 74.7751 72.9818 76.1405 73.9647 77.982C74.1959 78.4164 74.3914 78.719 74.8437 78.4961C76.9787 77.4438 79.1227 76.4107 81.2645 75.3761C81.56 75.2329 81.6768 74.9942 81.5474 74.5962C80.7768 72.1961 79.5907 70.074 77.5113 69.2094C74.4729 67.9454 71.3734 66.9675 68.2945 65.9073C67.2674 65.5534 66.6323 66.0491 66.6023 67.29C66.5518 69.4348 66.5976 71.5959 66.6041 73.9407ZM98.5277 46.7287C98.0228 44.952 96.2287 43.001 94.7078 42.5759C94.1356 42.4157 93.6474 42.5374 93.2646 43.0224C92.3175 44.2211 91.3794 45.4325 90.4107 46.6046C90.036 47.0567 90.0595 47.2379 90.633 47.4895C92.5722 48.3437 94.1025 49.839 95.0893 52.0835C95.3006 52.5651 95.4236 52.447 95.6327 52.1798C96.4802 51.1013 97.3249 50.0192 98.1968 48.9709C98.7171 48.344 98.776 47.5996 98.5277 46.7287ZM94.7206 58.0336C94.8124 56.3053 94.8859 54.7788 94.9771 53.2583C95.0009 52.8603 94.9477 52.4822 94.77 52.1243C93.6455 49.8666 92.0454 48.3672 89.9914 47.6288C89.481 47.4443 88.947 47.424 88.4634 47.599C86.5703 48.283 84.5931 48.6414 82.6407 49.0932C82.3664 49.1561 82.0979 49.2458 81.8276 49.3229C82.2751 49.6388 82.6934 49.7905 83.1127 49.9397C85.4419 50.7723 87.77 51.614 90.1006 52.4331C91.0417 52.7635 91.8256 53.4008 92.5614 54.2093C93.5047 55.2513 94.1572 56.4899 94.7206 58.0336ZM73.7879 78.8627C73.2272 76.9642 70.5473 74.3765 68.9377 74.1406C68.5755 74.0866 68.3366 74.2618 68.1158 74.5432C67.3662 75.5021 66.6167 76.4609 65.8432 77.3916C65.5349 77.7613 65.5084 78.0202 65.8907 78.4596C67.3009 80.0831 68.6779 81.7509 69.8483 83.6328C70.1088 84.0523 70.2728 83.9728 70.4973 83.6859C71.5389 82.3554 72.5887 81.0357 73.6458 79.7226C73.8549 79.4619 73.9254 79.1905 73.7879 78.8627ZM60.8339 84.1711C61.0587 84.9285 61.4569 85.4115 61.953 85.7617C62.4754 86.1306 63.016 86.4703 63.5625 86.7755C65.8373 88.0409 68.1684 88.9364 70.5955 89.0812C71.5144 89.136 71.6878 88.7129 71.2063 87.7162C70.6286 86.5174 69.9092 85.4269 69.1935 84.3374C67.7724 82.1752 66.2117 80.1598 64.4695 78.3536C63.7023 77.5585 63.2203 77.5539 62.5621 78.3206C61.6312 79.4032 61.1127 80.7834 60.9086 82.3646C60.8325 82.9806 60.6909 83.5956 60.8339 84.1711ZM75.0209 78.852C75.7049 79.0218 76.3005 78.8258 76.8763 78.548C78.4428 77.7867 80.0122 77.0355 81.5697 76.2549C82.2118 75.9319 82.9187 75.7129 83.4098 75.1009C87.4373 70.0588 91.4587 65.0075 95.4785 59.9567C95.7325 59.6373 95.9462 59.2814 95.9791 58.7979C96.0762 57.3783 96.1754 55.9603 96.2746 54.5424C96.2943 54.2593 96.2932 53.9777 96.1696 53.7048C96.0314 53.399 95.8194 53.1558 95.5484 53.15C95.2054 53.1451 95.3008 53.5352 95.2878 53.7924C95.1969 55.3938 95.113 56.9953 95.0313 58.5983C95.0105 59.0194 94.8909 59.3594 94.6524 59.6591C91.0419 64.1693 87.4137 68.6605 83.8526 73.2266C82.6834 74.7268 81.4055 75.9324 79.7287 76.6094C78.1217 77.2533 76.5869 78.0952 75.0209 78.852ZM91.5642 44.5124C92.0787 43.8653 92.6161 43.428 92.8583 42.6597C93.0818 41.9492 93.517 41.5673 94.1852 41.5581C94.2991 41.5563 94.4585 41.6091 94.4808 41.3908C94.3526 41.1696 94.1897 40.9625 94.1059 40.7242C93.9434 40.2593 94.0645 39.9494 94.4897 39.9462C95.0691 39.9405 95.6575 40.8062 95.4479 41.4232C95.3237 41.7907 95.4374 41.8435 95.6698 41.9608C96.977 42.6303 97.9557 43.7781 98.7535 45.1741C99.8509 47.0965 99.7252 48.3166 98.3162 49.5006C98.201 49.5968 98.0361 49.6853 98.0636 49.8807C98.101 50.1475 98.3298 50.1413 98.4859 50.1885C99.4073 50.4743 100.334 50.5684 101.26 50.6606C102.122 50.7467 102.345 50.2987 101.86 49.3641C99.9838 45.741 97.6234 42.588 94.94 39.7719C94.3372 39.1397 93.8662 39.1735 93.3395 39.741C92.6006 40.5394 92.1007 41.5341 91.798 42.6955C91.6596 43.2353 91.5004 43.7636 91.5642 44.5124ZM95.1742 61.3719C94.92 61.3941 94.8517 61.5622 94.7576 61.683C91.3812 65.9211 88.0097 70.1643 84.6249 74.3917C84.1227 75.02 83.7066 75.7898 83.011 76.1476C82.5442 76.3878 82.4038 76.7228 82.5798 77.3216C82.642 77.5333 82.5566 77.8329 82.805 77.926C82.9964 77.9982 83.091 77.768 83.1985 77.6324C84.5742 75.9117 85.946 74.1898 87.3195 72.4675C89.7723 69.393 92.2168 66.3077 94.6874 63.2522C95.1062 62.7329 95.2357 62.1432 95.1742 61.3719ZM81.0602 79.6427C82.0036 79.4502 82.3725 78.7988 82.2742 77.5464C82.2092 76.7193 82.0789 76.6144 81.4752 76.9177C80.1465 77.5806 78.8268 78.2628 77.4879 78.9024C76.8417 79.2112 76.2147 79.6674 75.4579 79.5511C74.7393 79.4392 74.5182 79.7382 74.4874 80.5686C74.4654 81.1583 74.5226 81.2293 74.9712 81.1167C76.9967 80.6069 79.0299 80.1299 81.0602 79.6427ZM78.8173 51.1339C80.3093 51.6611 81.719 52.0851 83.099 52.664C85.6163 53.7183 88.3168 53.9577 90.616 56.0007C90.7957 56.1614 91.0826 56.3527 91.2541 56.0525C91.4154 55.7662 91.2743 55.4503 91.0819 55.2014C90.6058 54.5877 90.0279 54.1603 89.3805 53.9276C86.3523 52.8354 83.3232 51.7523 80.2937 50.6801C79.7434 50.4853 79.2275 50.51 78.8173 51.1339ZM71.7276 60.0033C73.6022 60.6684 75.4128 61.2446 77.1966 61.9618C79.3025 62.8079 81.5553 63.0395 83.4497 64.8177C83.656 65.0101 84.0119 65.2517 84.1993 64.8902C84.3619 64.5772 84.1397 64.2364 83.927 63.9845C83.3079 63.2521 82.5588 62.8539 81.7592 62.5815C80.6122 62.1897 79.4712 61.7634 78.3252 61.3625C76.6064 60.7623 74.8865 60.1645 73.1663 59.5778C72.6298 59.3943 72.1373 59.4211 71.7276 60.0033ZM73.6834 57.5381C75.2394 58.0799 76.7131 58.5184 78.1554 59.1123C80.6302 60.1284 83.2797 60.3868 85.5326 62.3971C85.7073 62.5527 85.9549 62.6984 86.1151 62.4451C86.2785 62.191 86.1561 61.885 85.9994 61.6566C85.5683 61.0278 85.0085 60.6084 84.3858 60.3817C81.301 59.2576 78.2137 58.1495 75.1254 57.0505C74.5674 56.8534 74.0628 56.9361 73.6834 57.5381ZM75.7061 55.067C77.5307 55.7048 79.2796 56.244 80.9998 56.9356C83.1671 57.8056 85.4874 58.0333 87.4351 59.8684C87.6398 60.0613 87.9444 60.2345 88.1264 59.9095C88.2924 59.6087 88.0958 59.302 87.9107 59.0664C87.3802 58.3917 86.721 57.994 86.0122 57.7373C84.8275 57.306 83.6408 56.8861 82.4541 56.4663C80.7166 55.8495 78.9799 55.2238 77.2389 54.6321C76.681 54.4415 76.114 54.3672 75.7061 55.067ZM68.6176 63.9098C70.7275 64.6651 72.7765 65.3613 74.8114 66.138C76.6704 66.8468 78.6442 67.1187 80.29 68.7165C80.373 68.7977 80.4908 68.834 80.5945 68.8766C80.7672 68.9453 80.9445 68.9865 81.0627 68.8021C81.1766 68.621 81.1085 68.4132 81.0313 68.2167C80.9083 67.9087 80.6772 67.7343 80.4578 67.539C79.6337 66.8038 78.694 66.5277 77.7605 66.1995C75.3264 65.3444 72.8942 64.4712 70.462 63.6046C69.7944 63.3689 69.1572 63.2643 68.6176 63.9098ZM63.7089 77.2113C67.0416 80.2051 69.5651 84.0042 71.8371 88.1438C71.8751 87.7396 71.7313 87.4638 71.5858 87.1884C69.784 83.8085 67.5955 80.8075 65.1122 78.1004C64.7074 77.6564 64.2719 77.2715 63.7089 77.2113ZM102.463 49.7187C102.5 49.2559 102.333 48.9343 102.157 48.6216C100.296 45.2609 98.117 42.2135 95.5876 39.5173C95.0965 38.9931 94.7929 38.8546 94.4623 38.8746C97.6319 41.7902 100.193 45.537 102.463 49.7187ZM66.2338 69.3878C65.9172 69.5371 65.8523 69.7479 65.8394 69.9745C65.7377 71.6182 65.6413 73.2626 65.5505 74.9076C65.5286 75.294 65.683 75.6193 65.9593 75.8595C66.1394 76.0158 66.2964 76.054 66.2928 75.7142C66.2742 73.6481 66.2539 71.5824 66.2338 69.3878Z" fill="white"/>
<path d="M77.4436 73.0801C77.5403 73.4216 77.5056 73.7988 77.3737 74.1096C77.2393 74.426 77.0336 74.6122 76.842 74.6708L76.9882 75.149L76.8424 74.6707C76.6414 74.732 76.3654 74.6871 76.0838 74.4895C75.8063 74.2948 75.575 73.9835 75.4793 73.6224L75.4792 73.6219C75.387 73.2758 75.4277 72.9004 75.5636 72.5955C75.7018 72.2854 75.909 72.1058 76.1022 72.0518C76.2934 71.9984 76.5638 72.0452 76.8435 72.2416C77.1182 72.4345 77.3464 72.7369 77.4436 73.0801ZM77.4436 73.0801L77.9247 72.9438L77.4436 73.0801Z" fill="white" stroke="white"/>
<path d="M67.8678 87.021C67.732 87.1012 67.5789 87.1523 67.4142 87.174C67.1412 87.21 66.8505 87.1645 66.5584 87.0708C66.5583 87.0708 66.5583 87.0708 66.5583 87.0708C66.4968 87.0511 66.4351 87.0292 66.3736 87.0055L66.373 87.0053C64.5766 86.3105 63.3504 84.7968 62.7395 82.7713L62.6715 82.7863M67.8678 87.021L62.7284 82.7342C62.7321 82.7466 62.7358 82.7589 62.7395 82.7713L62.6715 82.7863M67.8678 87.021C67.5405 87.2757 67.077 87.3603 66.5207 87.2147M67.8678 87.021L66.5207 87.2147M62.6715 82.7863C63.0764 84.6199 64.9816 86.8123 66.5207 87.2147M62.6715 82.7863C62.6178 82.542 62.5935 82.3081 62.5975 82.0893L66.5207 87.2147" fill="white" stroke="white"/>
</g>
<g filter="url(#filter1_d_532_14)">
<path d="M84.6736 27.1584C84.3295 26.5599 83.5558 26.1636 82.9503 26.5256L82.3118 26.9086C81.4463 27.427 80.9235 26.7233 80.7892 26.5039L78.8128 23.069C78.6743 22.829 75.3574 17.1798 69.4603 17.1151L45.737 17.2991L45.6609 17.2997L45.6585 17.2997C38.4488 17.2283 34.4191 22.8972 34.2519 23.1395C34.2398 23.1553 34.2311 23.1719 34.2215 23.1885L28.0876 34.2879C27.7189 34.9504 27.7186 35.6671 28.0857 36.305C28.4143 36.8764 28.9238 37.2028 28.9945 37.2453L43.9866 45.9319C44.0378 45.9612 44.5104 46.2244 45.1404 46.2188C45.7421 46.2143 46.5927 45.9668 47.2327 44.8152L56.5303 28.0831L62.0769 37.7234C62.5669 38.5735 62.1667 38.9282 62.0404 39.0109L61.2892 39.4616C60.6 39.8746 60.3395 40.8385 60.7353 41.5241C60.9344 41.8694 61.2693 42.094 61.6797 42.1553L77.9246 44.5731C78.174 44.61 78.4156 44.4678 78.51 44.2293L84.7609 28.3409C84.9256 27.9714 84.8932 27.5398 84.6736 27.1584ZM46.2848 44.2658C45.6088 45.4813 44.6974 45.058 44.5261 44.9635L29.5494 36.2858C29.5462 36.2841 29.2179 36.0736 29.0269 35.7406C28.8557 35.4438 28.8592 35.1573 29.0372 34.8364L35.1559 23.7635C35.2783 23.5942 36.1593 22.4308 37.6918 21.2311L36.7461 22.9325C36.5977 23.2003 36.6884 23.5398 36.9516 23.6923C37.2139 23.8439 37.5464 23.7505 37.6949 23.4819L39.6707 19.9282C40.4094 19.5272 41.2349 19.1733 42.1395 18.9065L39.8372 23.048C39.6888 23.3158 39.7811 23.6545 40.0427 23.8069C40.3042 23.9594 40.6375 23.866 40.7868 23.5982L43.5766 18.5778C44.2091 18.4731 44.8726 18.4128 45.5682 18.4142L42.9283 23.1635C42.7799 23.4313 42.8714 23.7708 43.1338 23.9232C43.3961 24.0757 43.7286 23.9807 43.8779 23.7129L46.7699 18.5084C47.3537 18.599 47.9088 18.7459 48.4286 18.9434L46.0194 23.279C45.871 23.546 45.9625 23.8855 46.2241 24.0379C46.4864 24.1904 46.8189 24.097 46.969 23.8292L49.4293 19.4016C49.9367 19.6678 50.4056 19.969 50.8342 20.2911L49.1097 23.3945C48.9605 23.6623 49.0536 24.0018 49.316 24.1542C49.5775 24.3059 49.91 24.2117 50.0593 23.9439L51.6968 20.9971C52.1683 21.4229 52.5726 21.8476 52.9079 22.2389L52.2017 23.5108C52.0524 23.7778 52.1439 24.1173 52.4063 24.2697C52.6687 24.4222 53.0012 24.3289 53.1504 24.061L53.6436 23.1722C53.9157 23.5516 54.0688 23.804 54.0738 23.8147L55.8912 26.9716L46.2848 44.2658ZM83.7573 27.9042L77.6587 43.4076L61.8389 41.0535C61.7329 41.0386 61.697 40.9959 61.6765 40.9606C61.6011 40.829 61.6378 40.5464 61.8423 40.4235L62.5943 39.9736C63.0162 39.7194 63.9161 38.7202 63.0181 37.1598L55.0158 23.2527C54.915 23.0768 53.1366 20.0492 49.9886 18.3818L69.4581 18.2306C74.7203 18.2886 77.8413 23.5817 77.8724 23.6343L79.852 27.074C80.3083 27.8468 81.4873 28.6958 82.8641 27.8697L83.476 27.5026C83.5344 27.517 83.6595 27.5937 83.7324 27.7228C83.7464 27.7466 83.7907 27.8297 83.7573 27.9042Z" fill="white"/>
<path d="M84.2403 27.4078L84.2402 27.4076C84.1213 27.2008 83.9256 27.029 83.7195 26.9441C83.5196 26.8617 83.346 26.8718 83.2075 26.9544L84.2403 27.4078ZM84.2403 27.4078C84.3887 27.6656 84.3971 27.929 84.3042 28.1374L84.2997 28.1476L84.2957 28.1579L78.0452 44.0452C78.0451 44.0453 78.0451 44.0454 78.045 44.0455C78.0335 44.0742 78.0109 44.0804 77.9979 44.0785L61.7536 41.6608C61.4877 41.6211 61.2882 41.4822 61.1684 41.2744L61.1683 41.2742C60.9133 40.8323 61.0837 40.1676 61.5462 39.8904L61.5464 39.8903L62.2976 39.4396L62.306 39.4346L62.3142 39.4293C62.4416 39.3459 62.6765 39.1462 62.773 38.7833C62.8713 38.4133 62.799 37.975 62.5101 37.4737L56.9637 27.8338L56.5228 27.0674L56.0933 27.8403L46.7956 44.5723C46.7956 44.5723 46.7956 44.5723 46.7956 44.5723C46.2521 45.5504 45.5772 45.7155 45.1367 45.7188L45.136 45.7189C44.6418 45.7232 44.2643 45.5147 44.2361 45.4986C44.2358 45.4984 44.2355 45.4983 44.2353 45.4981L29.2493 36.815C29.1959 36.7823 28.781 36.5111 28.5192 36.0558L28.5191 36.0556C28.2426 35.5751 28.2382 35.0454 28.5245 34.531L28.5252 34.5297L34.6573 23.4335L34.6595 23.4298L34.6614 23.4264L34.6615 23.4262L34.6634 23.4235C34.8161 23.2021 38.7131 17.731 45.6535 17.7997L45.6535 17.7997L45.6622 17.7997L45.6647 17.7997L45.7407 17.7991L45.7408 17.7991M84.2403 27.4078L45.7408 17.7991M45.7408 17.7991L69.4594 17.6152M45.7408 17.7991L69.4594 17.6152M46.7218 44.5085L46.7217 44.5088C46.317 45.2365 45.7878 45.5498 45.2673 45.6033C44.7864 45.6527 44.4082 45.4694 44.2846 45.4013L44.2753 45.3962L44.2754 45.3961L29.2987 36.7184L29.2956 36.7166L29.288 36.712L29.2811 36.7077L29.2722 36.702L29.2529 36.6891C29.2383 36.6792 29.2193 36.6659 29.197 36.6495C29.1524 36.6167 29.0929 36.5703 29.0265 36.5113C28.897 36.3962 28.725 36.2193 28.5932 35.9894C28.4709 35.7771 28.3982 35.5442 28.4011 35.2918C28.404 35.0415 28.4808 34.8088 28.5997 34.5943C28.5998 34.5942 28.5998 34.594 28.5999 34.5939L34.7182 23.5217L34.7329 23.4951L34.7507 23.4705C34.8921 23.275 35.8043 22.0737 37.3836 20.8374L38.1288 21.474L37.1834 23.1749C37.1834 23.1749 37.1834 23.175 37.1834 23.175C37.1746 23.1909 37.1727 23.2086 37.1773 23.2256C37.1818 23.2423 37.191 23.2531 37.2022 23.2596L46.7218 44.5085ZM46.7218 44.5085L56.3283 27.2144L56.4656 26.9672L56.3245 26.7221L54.5107 23.5715L54.5102 23.5706L54.5042 23.56L54.494 23.5426C54.4871 23.5311 54.4782 23.5165 54.4675 23.4994C54.4461 23.4649 54.416 23.4174 54.3777 23.3586C54.3011 23.2411 54.1906 23.077 54.0499 22.8808L53.5895 22.239L53.2064 22.9296L52.7136 23.8177C52.7136 23.8177 52.7136 23.8178 52.7135 23.8179C52.7051 23.8328 52.6947 23.839 52.6857 23.8416C52.6769 23.8441 52.668 23.8435 52.6575 23.8374C52.6463 23.8309 52.6369 23.8199 52.6324 23.8031C52.6278 23.7862 52.6299 23.7695 52.6381 23.7548L52.6388 23.7535L53.345 22.4817L53.5138 22.1776L53.2876 21.9136C52.9395 21.5074 52.5204 21.0673 52.0319 20.6261L51.5652 20.2045L51.2598 20.7543L49.6225 23.7005C49.6224 23.7006 49.6224 23.7008 49.6223 23.7009C49.6138 23.716 49.603 23.7226 49.5936 23.7253C49.5845 23.7278 49.5763 23.7271 49.5672 23.7219C49.5554 23.7151 49.5456 23.7034 49.5409 23.6862C49.5363 23.6692 49.5384 23.6525 49.5465 23.6379L49.5468 23.6374L51.2713 20.5339L51.4829 20.1531L51.1346 19.8913C50.6857 19.554 50.1941 19.2382 49.6615 18.9588L49.2293 18.7321L48.9922 19.1588L46.5328 23.5848C46.5327 23.5849 46.5327 23.585 46.5326 23.5851C46.5239 23.6006 46.5129 23.6071 46.5037 23.6097C46.4946 23.6123 46.4857 23.6117 46.4753 23.6056L46.2241 24.0379L46.4758 23.6059C46.465 23.5996 46.4554 23.5886 46.4508 23.5713C46.4461 23.5538 46.4483 23.5367 46.4564 23.522L46.4565 23.5219L48.8657 19.1863L49.1463 18.6813L48.6063 18.4761C48.0528 18.2657 47.4638 18.1101 46.8465 18.0143L46.5021 17.9609L46.3328 18.2655L43.4411 23.4695C43.4411 23.4696 43.441 23.4697 43.441 23.4697C43.4323 23.4853 43.4212 23.492 43.4118 23.4946C43.4028 23.4972 43.3946 23.4965 43.385 23.4909C43.3738 23.4844 43.3643 23.4734 43.3597 23.4562C43.3551 23.439 43.357 23.4216 43.3655 23.4061C43.3656 23.406 43.3656 23.406 43.3657 23.4059L46.0052 18.6571L46.4172 17.9159L45.5692 17.9142C44.8439 17.9128 44.1527 17.9757 43.495 18.0845L43.2568 18.1239M46.7218 44.5085L43.2568 18.1239M43.2568 18.1239L43.1396 18.3349M43.2568 18.1239L43.1396 18.3349M43.1396 18.3349L40.35 23.3549C40.35 23.3549 40.35 23.3549 40.35 23.3549C40.3418 23.3696 40.3313 23.3761 40.3219 23.3787C40.3126 23.3813 40.304 23.3805 40.2944 23.3749C40.283 23.3683 40.2734 23.3569 40.2688 23.3398M43.1396 18.3349L40.2688 23.3398M69.4594 17.6152C72.239 17.6471 74.4279 18.9935 75.9583 20.3951C77.487 21.7951 78.3208 23.2169 78.3794 23.3184L69.4594 17.6152ZM40.2688 23.3398C40.2641 23.3228 40.2661 23.3057 40.2745 23.2905M40.2688 23.3398L40.2745 23.2905M40.2745 23.2905C40.2745 23.2904 40.2745 23.2904 40.2746 23.2904L40.2745 23.2905ZM82.569 27.3374L83.2069 26.9548L78.3797 23.3189L80.3558 26.7533L80.3556 26.7534L80.3627 26.7649C80.4476 26.9037 80.6684 27.2223 81.0381 27.4226C81.4482 27.6448 81.9836 27.688 82.5688 27.3375L82.569 27.3374ZM77.5851 43.9021L77.9785 43.9607L78.124 43.5906L84.2198 28.0942C84.2927 27.9203 84.2704 27.7601 84.2464 27.6681C84.222 27.5747 84.1838 27.5044 84.166 27.4736C84.0913 27.3427 83.9946 27.2441 83.9058 27.1751C83.825 27.1122 83.7161 27.0469 83.5961 27.0172L83.3958 26.9677L83.2188 27.0738L82.6069 27.4409L82.6069 27.4409C82.0545 27.7724 81.5783 27.7562 81.1956 27.606C80.7915 27.4474 80.4643 27.1264 80.2839 26.822C80.2835 26.8213 80.283 26.8205 80.2826 26.8198L78.3057 23.3849L78.3058 23.3848L78.3027 23.3797L78.3026 23.3794C78.2729 23.3293 77.4565 21.9491 75.9669 20.5678C74.4773 19.1865 72.2675 17.7615 69.4637 17.7307L69.4637 17.7306L69.4543 17.7307L49.9847 17.8818L49.7545 18.8237C52.7721 20.422 54.492 23.3442 54.582 23.5013L54.5824 23.5021L62.5847 37.4092L62.5847 37.4092C62.9677 38.0747 62.9428 38.5644 62.8288 38.8926C62.7062 39.2457 62.4598 39.4707 62.3369 39.545C62.3367 39.5451 62.3365 39.5452 62.3363 39.5453L61.5856 39.9944L61.5847 39.9949C61.3444 40.1393 61.2188 40.3674 61.169 40.5689C61.1229 40.7555 61.1228 41 61.2427 41.2092L61.2439 41.2113C61.2772 41.2687 61.3371 41.3548 61.4435 41.4275C61.5452 41.497 61.6574 41.5326 61.7671 41.5483C61.7679 41.5484 61.7686 41.5485 61.7694 41.5486L77.5851 43.9021Z" stroke="white"/>
</g>
<g filter="url(#filter2_d_532_14)">
<path d="M18.2562 45.6174C17.9211 46.221 17.9713 47.1033 18.5814 47.4571L19.2255 47.8304C20.0987 48.3366 19.7627 49.1507 19.6447 49.3787L17.7191 52.8428C17.585 53.0849 14.4521 58.8411 17.3479 64.088L29.3717 84.97L29.4102 85.0366L29.4111 85.0391C32.9577 91.4486 39.7817 92.1776 40.0707 92.2052C40.0893 92.2075 40.1087 92.2082 40.1273 92.2081L52.6119 92.0838C53.3575 92.0782 53.9654 91.7202 54.3238 91.076C54.643 90.5014 54.665 89.8861 54.666 89.8027L54.5352 72.206C54.5348 72.1466 54.5209 71.5984 54.2014 71.0435C53.8974 70.514 53.2618 69.8855 51.9647 69.8953L33.1194 70.0367L38.5219 60.3143C38.9983 59.4569 39.5003 59.634 39.6318 59.704L40.3904 60.1417C41.0858 60.5452 42.0325 60.2929 42.4172 59.6014C42.6111 59.2531 42.6331 58.8434 42.4805 58.4499L36.4044 42.8803C36.3112 42.6407 36.0691 42.4989 35.8203 42.5346L19.2152 44.9488C18.8193 44.9882 18.4693 45.2327 18.2562 45.6174ZM51.9714 71.0099C53.3397 70.9996 53.4371 72.0161 53.4426 72.2151L53.5741 89.7927C53.5742 89.7969 53.5601 90.1917 53.3726 90.5266C53.2066 90.8268 52.9618 90.9673 52.6011 90.97L40.1473 91.0941C39.9417 91.0709 38.5152 90.8735 36.7303 90.1165L38.6461 90.103C38.9477 90.1007 39.1901 89.8495 39.1886 89.5407C39.1855 89.2336 38.941 88.9861 38.6378 88.9884L34.6363 89.0184C33.9268 88.5647 33.2134 88.0127 32.5347 87.3457L37.2002 87.3107C37.501 87.3084 37.7442 87.058 37.7411 86.7501C37.7396 86.4421 37.4927 86.1938 37.1918 86.1961L31.5374 86.2385C31.1324 85.7321 30.749 85.1768 30.4023 84.5602L35.751 84.52C36.0527 84.5177 36.2951 84.2666 36.2928 83.9586C36.2904 83.6506 36.0444 83.4031 35.7427 83.4054L29.8812 83.4494C29.6659 82.8879 29.5129 82.3235 29.4205 81.7652L34.3035 81.7285C34.6044 81.7263 34.8467 81.4751 34.8444 81.168C34.8429 80.86 34.5968 80.6125 34.2952 80.6139L29.3079 80.6522C29.2809 80.0695 29.3017 79.5037 29.36 78.9633L32.8552 78.937C33.1568 78.9356 33.3992 78.6836 33.3969 78.3757C33.3938 78.0685 33.1485 77.821 32.8469 77.8233L29.5279 77.8482C29.6534 77.2181 29.8117 76.6488 29.9754 76.1563L31.4077 76.1456C31.7077 76.1433 31.9509 75.893 31.9486 75.5842C31.9463 75.277 31.7002 75.0287 31.3993 75.031L30.3981 75.0385C30.5834 74.6086 30.7213 74.3483 30.7277 74.3367L32.4969 71.1536L51.9714 71.0074L51.9714 71.0099ZM19.3456 46.0543L35.5484 43.6992L41.4646 58.8621C41.505 58.9625 41.4868 59.0163 41.4668 59.0512C41.3934 59.1838 41.1354 59.2931 40.9283 59.1741L40.1704 58.7339C39.7448 58.4878 38.4462 58.1912 37.5716 59.7657L29.7774 73.7914C29.6784 73.9688 27.9991 77.0538 28.1604 80.6699L18.2932 63.5319C15.7106 58.8507 18.6391 53.4461 18.6686 53.393L20.5958 49.9239C21.0234 49.133 21.1531 47.6673 19.7641 46.862L19.1468 46.5049C19.1294 46.4456 19.1323 46.2978 19.205 46.1676C19.2177 46.1428 19.2665 46.0631 19.3456 46.0543Z" fill="white"/>
<path d="M29.9271 81.7614L34.3035 81.7285C34.6044 81.7263 34.8467 81.4751 34.8444 81.168C34.8429 80.86 34.5968 80.6125 34.2952 80.6139L29.9271 81.7614ZM29.9271 81.7614C29.9226 81.7354 29.9181 81.7095 29.9138 81.6836L29.4205 81.7652L29.4243 82.2652L29.519 82.2645C29.6094 82.6588 29.7299 83.0548 29.8812 83.4494L35.7427 83.4054C36.0444 83.4031 36.2904 83.6507 36.2928 83.9586C36.2951 84.2666 36.0527 84.5177 35.751 84.52L30.9773 84.5558C30.9302 84.4767 30.8838 84.3964 30.8381 84.3151L30.4023 84.5602L30.406 85.0602L30.698 85.058C30.9627 85.4802 31.2444 85.8721 31.5374 86.2385L37.1918 86.1961C37.4927 86.1938 37.7396 86.4421 37.7411 86.7501C37.7442 87.058 37.501 87.3084 37.2002 87.3107L33.2578 87.3403C33.1326 87.227 33.0083 87.11 32.8852 86.9891L32.5347 87.3457L32.5385 87.8457L33.0691 87.8417C33.5832 88.2924 34.1108 88.6823 34.6363 89.0184L38.6378 88.9884C38.941 88.9861 39.1855 89.2336 39.1886 89.5407M29.9271 81.7614L52.6061 91.47C52.8506 91.468 53.0909 91.4187 53.309 91.2934C53.5288 91.1671 53.691 90.9837 53.8096 90.7696C53.9386 90.5387 54.0023 90.2998 54.0348 90.1294C54.0669 89.9617 54.0744 89.829 54.0741 89.789L53.9426 72.2113L53.9427 72.2113L53.9424 72.2011C53.9385 72.0596 53.905 71.64 53.6265 71.2456C53.3908 70.9118 53.0159 70.6465 52.468 70.5496L52.4676 70.5037L51.9676 70.5074L32.4932 70.6536L32.2016 70.6558L32.0599 70.9107L30.2907 74.0938L30.2896 74.0957C30.2747 74.1228 30.1298 74.3976 29.939 74.8407L29.6358 75.5442L30.4019 75.5385L31.4031 75.5309C31.4114 75.5309 31.4209 75.5336 31.431 75.5437C31.4412 75.5541 31.4484 75.569 31.4486 75.5879C31.4489 75.6299 31.4186 75.6455 31.4039 75.6456L29.9717 75.6563L29.6139 75.659L29.501 75.9986C29.3314 76.5088 29.1675 77.0982 29.0376 77.7505L28.9176 78.3528L29.5317 78.3482L32.8506 78.3233C32.8601 78.3232 32.8696 78.3263 32.8793 78.336C32.8891 78.3459 32.8966 78.3606 32.8969 78.3801M39.1886 89.5407L38.6886 89.5432C38.6886 89.5436 38.6886 89.5441 38.6886 89.5445M39.1886 89.5407L38.6886 89.5458C38.6886 89.5454 38.6886 89.545 38.6886 89.5445M39.1886 89.5407C39.1901 89.8495 38.9477 90.1007 38.6461 90.103L52.6049 91.47L40.1522 91.5941L40.1216 91.5944L40.0911 91.5909C39.8511 91.5638 38.3752 91.3573 36.535 90.5769L36.7267 89.6166L38.6424 89.603C38.6424 89.603 38.6424 89.603 38.6424 89.603C38.6574 89.6028 38.6882 89.5877 38.6886 89.5445M38.6886 89.5445C38.6881 89.525 38.6806 89.5106 38.6712 89.5011C38.6619 89.4918 38.6524 89.4883 38.6415 89.4884L34.64 89.5184L34.4918 89.5195L34.3669 89.4396C33.6306 88.9687 32.8896 88.3955 32.1843 87.7023L31.3219 86.8548L32.531 86.8457L37.1964 86.8107C37.2131 86.8105 37.2415 86.7941 37.2411 86.7552L37.2411 86.7525C37.241 86.7338 37.2339 86.7192 37.2238 86.7089C37.2137 86.6988 37.2041 86.696 37.1956 86.696L31.5411 86.7385L31.2984 86.7403L31.1469 86.5508C30.7266 86.0252 30.3276 85.4476 29.9664 84.8052L29.5511 84.0665L30.3985 84.0602L35.7473 84.02C35.7631 84.0199 35.7931 84.004 35.7928 83.9624C35.7925 83.9207 35.7623 83.9053 35.7464 83.9054L29.8849 83.9494L29.5384 83.952L29.4143 83.6284C29.1873 83.0363 29.0252 82.4393 28.9272 81.8468L28.8318 81.2696L29.4168 81.2652L34.2998 81.2285C34.3087 81.2285 34.3182 81.2254 34.3278 81.2154C34.3377 81.2052 34.3446 81.1905 34.3444 81.1717L34.3444 81.1704C34.3442 81.1306 34.3154 81.1141 34.298 81.1139L34.299 81.1139L34.2952 80.6143L34.2976 81.1139L29.3117 81.1522L28.8307 81.1559L28.8084 80.6754C28.7802 80.0658 28.802 79.4744 28.8628 78.9097L28.9106 78.4666L29.3562 78.4633L32.8514 78.4371L32.8528 78.4371C32.8614 78.437 32.8706 78.4341 32.88 78.4243C32.8897 78.4143 32.8969 78.3995 32.8969 78.3801M32.8969 78.3801C32.8969 78.3803 32.8969 78.3805 32.8969 78.3807L33.3969 78.3756L32.8969 78.3794C32.8969 78.3796 32.8969 78.3798 32.8969 78.3801ZM35.8697 43.1472L36.0142 43.5174L41.9285 58.6756C41.9289 58.6765 41.9293 58.6775 41.9297 58.6784C41.9703 58.7805 41.9952 58.8937 41.9873 59.014C41.9791 59.1387 41.9382 59.2335 41.9025 59.2965C41.7843 59.5075 41.574 59.6327 41.3876 59.687C41.1851 59.7461 40.9235 59.748 40.6792 59.6077L40.6772 59.6065L39.9201 59.1668C39.92 59.1667 39.9199 59.1667 39.9199 59.1666C39.7963 59.0953 39.4862 58.9916 39.132 59.0584C38.8061 59.1199 38.3817 59.337 38.0086 60.0085L38.0086 60.0086L30.2144 74.0343L30.2141 74.0349C30.1263 74.1923 28.505 77.1754 28.6599 80.6476L27.7271 80.9194L17.8599 63.7814L17.8553 63.7735L17.8554 63.7734C16.4837 61.2871 16.586 58.6287 17.0123 56.623C17.4391 54.6151 18.2023 53.2027 18.2317 53.1499M35.8697 43.1472L18.2317 53.1499M35.8697 43.1472L35.4765 43.2044L19.279 45.5587C19.0888 45.5833 18.9604 45.6866 18.8936 45.7547C18.8286 45.8209 18.7872 45.8882 18.7647 45.9305C18.694 46.0595 18.6599 46.1904 18.646 46.3004C18.6333 46.4018 18.6325 46.5281 18.6671 46.6459L18.7235 46.8377L18.8965 46.9378L19.5133 47.2945C19.5134 47.2946 19.5135 47.2946 19.5136 47.2946C20.0717 47.6184 20.3015 48.052 20.3671 48.475C20.4358 48.9182 20.3254 49.3715 20.1572 49.6838M35.8697 43.1472L20.1572 49.6838M18.2317 53.1499L20.1572 49.6838M18.2317 53.1499L20.1572 49.6838M18.6934 45.8601L18.6936 45.8596C18.8373 45.6003 19.0518 45.4675 19.2646 45.4464L19.2759 45.4453L19.2872 45.4436L35.8913 43.0295C35.8914 43.0295 35.8914 43.0295 35.8915 43.0295C35.9064 43.0274 35.9281 43.0352 35.9384 43.0615L35.9386 43.0621L42.0143 58.6306C42.0144 58.6308 42.0144 58.6309 42.0145 58.631C42.1171 58.8959 42.0967 59.1491 41.9803 59.3581L41.9802 59.3583C41.7353 59.7986 41.1016 59.9763 40.6414 59.7093L40.6403 59.7086L39.8817 59.2709L39.8743 59.2667L39.8667 59.2627C39.7325 59.1912 39.4408 59.0806 39.0764 59.1785C38.7041 59.2786 38.3654 59.5665 38.0848 60.0714L38.4747 60.2881L38.0848 60.0714L32.6823 69.7939L32.266 70.5432L33.1231 70.5367L51.9684 70.3952C53.0605 70.387 53.5406 70.8968 53.7678 71.2925L53.7681 71.293C54.0251 71.7394 54.035 72.1868 54.0352 72.2098L54.166 89.8007C54.1645 89.8722 54.1404 90.3763 53.8868 90.833C53.6173 91.3176 53.1762 91.5796 52.6082 91.5838L52.6069 91.5838L40.1247 91.7081L40.1181 91.7075C39.8601 91.6828 33.2952 90.9779 29.8706 84.8366L29.8684 84.83L29.8431 84.7863L29.805 84.7205L29.8046 84.7197L17.7835 63.8425C16.4154 61.3608 16.4633 58.7451 16.887 56.6896C17.3105 54.635 18.1007 53.1859 18.1563 53.0853C18.1564 53.0852 18.1564 53.0851 18.1565 53.085L20.0817 49.6216L20.0853 49.6151L20.0887 49.6085C20.1634 49.4643 20.3213 49.1126 20.3065 48.6913C20.2902 48.2284 20.0655 47.7394 19.4763 47.3978L19.4762 47.3978L18.8322 47.0245C18.8322 47.0245 18.8322 47.0245 18.8322 47.0245C18.8321 47.0245 18.8321 47.0245 18.8321 47.0245C18.6909 46.9425 18.5909 46.7889 18.5597 46.5626C18.5278 46.3316 18.5774 46.069 18.6934 45.8601Z" stroke="white"/>
</g>
<defs>
<filter id="filter0_d_532_14" x="56.4674" y="38.4043" width="50.3637" height="59.0872" filterUnits="userSpaceOnUse" color-interpolation-filters="sRGB">
<feFlood flood-opacity="0" result="BackgroundImageFix"/>
<feColorMatrix in="SourceAlpha" type="matrix" values="0 0 0 0 0 0 0 0 0 0 0 0 0 0 0 0 0 0 127 0" result="hardAlpha"/>
<feOffset dy="4"/>
<feGaussianBlur stdDeviation="2"/>
<feComposite in2="hardAlpha" operator="out"/>
<feColorMatrix type="matrix" values="0 0 0 0 0 0 0 0 0 0 0 0 0 0 0 0 0 0 0.3 0"/>
<feBlend mode="normal" in2="BackgroundImageFix" result="effect1_dropShadow_532_14"/>
<feBlend mode="normal" in="SourceGraphic" in2="effect1_dropShadow_532_14" result="shape"/>
</filter>
<filter id="filter1_d_532_14" x="23.8107" y="17.1152" width="65.0541" height="37.1038" filterUnits="userSpaceOnUse" color-interpolation-filters="sRGB">
<feFlood flood-opacity="0" result="BackgroundImageFix"/>
<feColorMatrix in="SourceAlpha" type="matrix" values="0 0 0 0 0 0 0 0 0 0 0 0 0 0 0 0 0 0 127 0" result="hardAlpha"/>
<feOffset dy="4"/>
<feGaussianBlur stdDeviation="2"/>
<feComposite in2="hardAlpha" operator="out"/>
<feColorMatrix type="matrix" values="0 0 0 0 0 0 0 0 0 0 0 0 0 0 0 0 0 0 0.25 0"/>
<feBlend mode="normal" in2="BackgroundImageFix" result="effect1_dropShadow_532_14"/>
<feBlend mode="normal" in="SourceGraphic" in2="effect1_dropShadow_532_14" result="shape"/>
</filter>
<filter id="filter2_d_532_14" x="12.1238" y="42.5291" width="46.5422" height="57.679" filterUnits="userSpaceOnUse" color-interpolation-filters="sRGB">
<feFlood flood-opacity="0" result="BackgroundImageFix"/>
<feColorMatrix in="SourceAlpha" type="matrix" values="0 0 0 0 0 0 0 0 0 0 0 0 0 0 0 0 0 0 127 0" result="hardAlpha"/>
<feOffset dy="4"/>
<feGaussianBlur stdDeviation="2"/>
<feComposite in2="hardAlpha" operator="out"/>
<feColorMatrix type="matrix" values="0 0 0 0 0 0 0 0 0 0 0 0 0 0 0 0 0 0 0.25 0"/>
<feBlend mode="normal" in2="BackgroundImageFix" result="effect1_dropShadow_532_14"/>
<feBlend mode="normal" in="SourceGraphic" in2="effect1_dropShadow_532_14" result="shape"/>
</filter>
</defs>
</svg>
