<svg width="411" height="128" viewBox="0 0 411 128" fill="none" xmlns="http://www.w3.org/2000/svg">
<path d="M191.7 50.2C191.267 50.2 190.9 50.0167 190.6 49.65L176.4 31.8L178.75 29.45L193.05 47.55C193.283 47.8833 193.4 48.2333 193.4 48.6C193.4 49.1333 193.2 49.5333 192.8 49.8C192.433 50.0667 192.067 50.2 191.7 50.2ZM191.15 15.1C191.55 15.1 191.883 15.25 192.15 15.55C192.45 15.85 192.6 16.1833 192.6 16.55C192.6 16.95 192.45 17.3 192.15 17.6L169.45 38.85L169.05 35.45L190.05 15.6C190.383 15.2667 190.75 15.1 191.15 15.1ZM168.25 50C167.783 50 167.4 49.85 167.1 49.55C166.833 49.25 166.7 48.8833 166.7 48.45V16.55C166.7 16.1167 166.85 15.75 167.15 15.45C167.45 15.15 167.833 15 168.3 15C168.733 15 169.1 15.15 169.4 15.45C169.7 15.75 169.85 16.1167 169.85 16.55V48.45C169.817 48.8833 169.65 49.25 169.35 49.55C169.05 49.85 168.683 50 168.25 50ZM230.127 32.5C230.127 35.1333 229.71 37.55 228.877 39.75C228.077 41.9167 226.927 43.8167 225.427 45.45C223.927 47.05 222.143 48.3 220.077 49.2C218.043 50.0667 215.81 50.5 213.377 50.5C210.943 50.5 208.693 50.0667 206.627 49.2C204.593 48.3 202.827 47.05 201.327 45.45C199.827 43.8167 198.66 41.9167 197.827 39.75C197.027 37.55 196.627 35.1333 196.627 32.5C196.627 29.8667 197.027 27.4667 197.827 25.3C198.66 23.1 199.827 21.2 201.327 19.6C202.827 17.9667 204.593 16.7167 206.627 15.85C208.693 14.95 210.943 14.5 213.377 14.5C215.81 14.5 218.043 14.95 220.077 15.85C222.143 16.7167 223.927 17.9667 225.427 19.6C226.927 21.2 228.077 23.1 228.877 25.3C229.71 27.4667 230.127 29.8667 230.127 32.5ZM226.927 32.5C226.927 29.5333 226.343 26.9333 225.177 24.7C224.043 22.4333 222.46 20.6667 220.427 19.4C218.393 18.1333 216.043 17.5 213.377 17.5C210.743 17.5 208.393 18.1333 206.327 19.4C204.293 20.6667 202.693 22.4333 201.527 24.7C200.393 26.9333 199.827 29.5333 199.827 32.5C199.827 35.4667 200.393 38.0833 201.527 40.35C202.693 42.5833 204.293 44.3333 206.327 45.6C208.393 46.8667 210.743 47.5 213.377 47.5C216.043 47.5 218.393 46.8667 220.427 45.6C222.46 44.3333 224.043 42.5833 225.177 40.35C226.343 38.0833 226.927 35.4667 226.927 32.5ZM246.858 50.5C244.324 50.5333 242.124 50.1333 240.258 49.3C238.391 48.4667 236.608 47.2167 234.908 45.55C234.741 45.4167 234.591 45.25 234.458 45.05C234.358 44.85 234.308 44.6167 234.308 44.35C234.308 43.95 234.458 43.5833 234.758 43.25C235.091 42.9167 235.458 42.75 235.858 42.75C236.258 42.75 236.624 42.9167 236.958 43.25C238.258 44.65 239.724 45.7167 241.358 46.45C243.024 47.1833 244.808 47.55 246.708 47.55C248.308 47.55 249.724 47.3 250.958 46.8C252.224 46.3 253.224 45.5833 253.958 44.65C254.691 43.7167 255.058 42.6333 255.058 41.4C255.058 39.8667 254.641 38.6333 253.808 37.7C252.974 36.7333 251.874 35.95 250.508 35.35C249.141 34.7167 247.624 34.15 245.958 33.65C244.591 33.25 243.291 32.8 242.058 32.3C240.824 31.7667 239.724 31.1333 238.758 30.4C237.791 29.6333 237.041 28.7 236.508 27.6C235.974 26.5 235.708 25.1667 235.708 23.6C235.708 21.8333 236.174 20.2667 237.108 18.9C238.041 17.5333 239.358 16.4667 241.058 15.7C242.791 14.9 244.791 14.5 247.058 14.5C249.024 14.5 250.908 14.8333 252.708 15.5C254.541 16.1667 255.991 17.15 257.058 18.45C257.558 18.9833 257.808 19.4667 257.808 19.9C257.808 20.2333 257.641 20.5667 257.308 20.9C256.974 21.2333 256.608 21.4 256.208 21.4C255.874 21.4 255.591 21.2833 255.358 21.05C254.791 20.35 254.074 19.7333 253.208 19.2C252.341 18.6333 251.374 18.2 250.308 17.9C249.274 17.6 248.191 17.45 247.058 17.45C245.491 17.45 244.074 17.7 242.808 18.2C241.574 18.6667 240.591 19.35 239.858 20.25C239.158 21.15 238.808 22.2333 238.808 23.5C238.808 24.9 239.208 26.05 240.008 26.95C240.808 27.85 241.858 28.6 243.158 29.2C244.458 29.7667 245.841 30.3 247.308 30.8C248.741 31.2 250.108 31.6667 251.408 32.2C252.741 32.7 253.908 33.3333 254.908 34.1C255.941 34.8667 256.741 35.8333 257.308 37C257.908 38.1667 258.208 39.6333 258.208 41.4C258.208 43.1 257.724 44.6333 256.758 46C255.791 47.3667 254.458 48.45 252.758 49.25C251.091 50.05 249.124 50.4667 246.858 50.5ZM304.506 17.6C304.906 17.8667 305.139 18.2167 305.206 18.65C305.273 19.05 305.173 19.45 304.906 19.85C304.673 20.15 304.373 20.3167 304.006 20.35C303.639 20.3833 303.289 20.3167 302.956 20.15C301.689 19.3167 300.323 18.6667 298.856 18.2C297.423 17.7333 295.873 17.5 294.206 17.5C292.173 17.5 290.273 17.8667 288.506 18.6C286.773 19.3 285.256 20.3333 283.956 21.7C282.656 23.0333 281.639 24.6167 280.906 26.45C280.206 28.2833 279.856 30.3 279.856 32.5C279.856 34.7667 280.223 36.8333 280.956 38.7C281.689 40.5333 282.706 42.1167 284.006 43.45C285.339 44.7833 286.873 45.8 288.606 46.5C290.339 47.2 292.206 47.55 294.206 47.55C295.839 47.55 297.373 47.3167 298.806 46.85C300.273 46.3833 301.639 45.75 302.906 44.95C303.239 44.75 303.589 44.6833 303.956 44.75C304.356 44.7833 304.673 44.9667 304.906 45.3C305.206 45.6667 305.306 46.0667 305.206 46.5C305.139 46.9 304.923 47.2167 304.556 47.45C303.723 47.9833 302.739 48.4833 301.606 48.95C300.473 49.4167 299.273 49.7833 298.006 50.05C296.739 50.35 295.473 50.5 294.206 50.5C291.806 50.5 289.556 50.0667 287.456 49.2C285.356 48.3333 283.489 47.1167 281.856 45.55C280.223 43.95 278.939 42.05 278.006 39.85C277.106 37.65 276.656 35.2 276.656 32.5C276.656 29.9 277.106 27.5167 278.006 25.35C278.906 23.15 280.156 21.25 281.756 19.65C283.356 18.05 285.223 16.8 287.356 15.9C289.489 15 291.773 14.55 294.206 14.55C296.106 14.55 297.939 14.8167 299.706 15.35C301.473 15.8833 303.073 16.6333 304.506 17.6ZM323.322 18.85L311.172 49.05C311.039 49.3833 310.855 49.6333 310.622 49.8C310.389 49.9667 310.122 50.05 309.822 50.05C309.355 50.05 309.005 49.9333 308.772 49.7C308.539 49.4333 308.405 49.1167 308.372 48.75C308.339 48.5833 308.355 48.3833 308.422 48.15L321.622 15.85C321.789 15.4833 321.989 15.2333 322.222 15.1C322.489 14.9333 322.789 14.85 323.122 14.85C323.455 14.85 323.739 14.95 323.972 15.15C324.239 15.3167 324.439 15.55 324.572 15.85L337.722 48C337.789 48.2 337.822 48.4 337.822 48.6C337.822 49.0667 337.672 49.4333 337.372 49.7C337.072 49.9333 336.722 50.05 336.322 50.05C335.989 50.05 335.689 49.9667 335.422 49.8C335.189 49.6 335.005 49.35 334.872 49.05L322.422 18.65L323.322 18.85ZM314.072 39.9L315.322 36.95H330.822L331.422 39.9H314.072ZM351.905 50C351.438 50 351.055 49.85 350.755 49.55C350.488 49.25 350.355 48.9 350.355 48.5V16.65H353.455V48.5C353.455 48.9 353.305 49.25 353.005 49.55C352.705 49.85 352.338 50 351.905 50ZM340.005 17.85C339.605 17.85 339.255 17.7167 338.955 17.45C338.655 17.1833 338.505 16.8333 338.505 16.4C338.505 16 338.655 15.6667 338.955 15.4C339.255 15.1333 339.605 15 340.005 15H363.805C364.205 15 364.555 15.1333 364.855 15.4C365.155 15.6667 365.305 16.0167 365.305 16.45C365.305 16.8833 365.155 17.2333 364.855 17.5C364.555 17.7333 364.205 17.85 363.805 17.85H340.005ZM168.4 115C167.9 115 167.483 114.85 167.15 114.55C166.85 114.25 166.7 113.9 166.7 113.5V81.5C166.7 81.1 166.85 80.75 167.15 80.45C167.45 80.15 167.8 80 168.2 80H181.7C183.6 80 185.3 80.4167 186.8 81.25C188.3 82.05 189.467 83.1667 190.3 84.6C191.167 86.0333 191.6 87.65 191.6 89.45C191.6 90.9167 191.333 92.2667 190.8 93.5C190.267 94.7333 189.517 95.7833 188.55 96.65C187.583 97.4833 186.5 98.1 185.3 98.5L183.55 97.95C184.783 98.05 185.933 98.45 187 99.15C188.067 99.8167 188.917 100.75 189.55 101.95C190.217 103.117 190.567 104.533 190.6 106.2C190.633 107.633 190.7 108.75 190.8 109.55C190.933 110.35 191.117 110.95 191.35 111.35C191.583 111.75 191.883 112.067 192.25 112.3C192.583 112.5 192.8 112.783 192.9 113.15C193.033 113.517 193 113.867 192.8 114.2C192.667 114.467 192.467 114.667 192.2 114.8C191.967 114.9 191.717 114.95 191.45 114.95C191.183 114.95 190.917 114.883 190.65 114.75C190.183 114.483 189.7 114.067 189.2 113.5C188.733 112.933 188.333 112.1 188 111C187.7 109.9 187.55 108.367 187.55 106.4C187.55 105.1 187.333 104.033 186.9 103.2C186.5 102.367 185.967 101.733 185.3 101.3C184.667 100.833 183.95 100.517 183.15 100.35C182.383 100.15 181.65 100.05 180.95 100.05H169.3L169.85 99.35V113.5C169.85 113.9 169.717 114.25 169.45 114.55C169.183 114.85 168.833 115 168.4 115ZM169.3 97.3H181.85C182.983 97.2 184.05 96.8333 185.05 96.2C186.05 95.5333 186.85 94.6333 187.45 93.5C188.083 92.3667 188.4 91.05 188.4 89.55C188.4 87.65 187.75 86.0833 186.45 84.85C185.183 83.5833 183.517 82.95 181.45 82.95H169.5L169.85 82.25V98L169.3 97.3ZM201.696 80H220.046C220.446 80 220.796 80.15 221.096 80.45C221.396 80.7167 221.546 81.0667 221.546 81.5C221.546 81.9333 221.396 82.2833 221.096 82.55C220.796 82.8167 220.446 82.95 220.046 82.95H202.846L203.346 82.1V96.15L202.796 95.5H217.796C218.196 95.5 218.546 95.65 218.846 95.95C219.146 96.25 219.296 96.6 219.296 97C219.296 97.4333 219.146 97.7833 218.846 98.05C218.546 98.3167 218.196 98.45 217.796 98.45H202.896L203.346 97.95V112.35L203.096 112.05H220.046C220.446 112.05 220.796 112.2 221.096 112.5C221.396 112.8 221.546 113.15 221.546 113.55C221.546 113.983 221.396 114.333 221.096 114.6C220.796 114.867 220.446 115 220.046 115H201.696C201.296 115 200.946 114.85 200.646 114.55C200.346 114.25 200.196 113.9 200.196 113.5V81.5C200.196 81.1 200.346 80.75 200.646 80.45C200.946 80.15 201.296 80 201.696 80ZM254.164 82.6C254.564 82.8667 254.797 83.2167 254.864 83.65C254.931 84.05 254.831 84.45 254.564 84.85C254.331 85.15 254.031 85.3167 253.664 85.35C253.297 85.3833 252.947 85.3167 252.614 85.15C251.347 84.3167 249.981 83.6667 248.514 83.2C247.081 82.7333 245.531 82.5 243.864 82.5C241.831 82.5 239.931 82.8667 238.164 83.6C236.431 84.3 234.914 85.3333 233.614 86.7C232.314 88.0333 231.297 89.6167 230.564 91.45C229.864 93.2833 229.514 95.3 229.514 97.5C229.514 99.7667 229.881 101.833 230.614 103.7C231.347 105.533 232.364 107.117 233.664 108.45C234.997 109.783 236.531 110.8 238.264 111.5C239.997 112.2 241.864 112.55 243.864 112.55C245.497 112.55 247.031 112.317 248.464 111.85C249.931 111.383 251.297 110.75 252.564 109.95C252.897 109.75 253.247 109.683 253.614 109.75C254.014 109.783 254.331 109.967 254.564 110.3C254.864 110.667 254.964 111.067 254.864 111.5C254.797 111.9 254.581 112.217 254.214 112.45C253.381 112.983 252.397 113.483 251.264 113.95C250.131 114.417 248.931 114.783 247.664 115.05C246.397 115.35 245.131 115.5 243.864 115.5C241.464 115.5 239.214 115.067 237.114 114.2C235.014 113.333 233.147 112.117 231.514 110.55C229.881 108.95 228.597 107.05 227.664 104.85C226.764 102.65 226.314 100.2 226.314 97.5C226.314 94.9 226.764 92.5167 227.664 90.35C228.564 88.15 229.814 86.25 231.414 84.65C233.014 83.05 234.881 81.8 237.014 80.9C239.147 80 241.431 79.55 243.864 79.55C245.764 79.55 247.597 79.8167 249.364 80.35C251.131 80.8833 252.731 81.6333 254.164 82.6ZM282.13 79.8C282.563 79.8 282.913 79.9667 283.18 80.3C283.48 80.6 283.63 80.9333 283.63 81.3C283.63 81.4667 283.597 81.6333 283.53 81.8C283.497 81.9333 283.43 82.0833 283.33 82.25L271.58 98.4L272.18 96.45V113.5C272.18 113.9 272.03 114.25 271.73 114.55C271.43 114.85 271.063 115 270.63 115C270.197 115 269.83 114.85 269.53 114.55C269.263 114.25 269.13 113.9 269.13 113.5V96.8L269.38 98L257.93 82.35C257.797 82.1833 257.697 82.0167 257.63 81.85C257.563 81.65 257.53 81.4667 257.53 81.3C257.53 80.8667 257.697 80.5167 258.03 80.25C258.397 79.95 258.763 79.8 259.13 79.8C259.63 79.8 260.047 80.0333 260.38 80.5L271.13 95.15L270.38 95.05L280.83 80.5C281.163 80.0333 281.597 79.8 282.13 79.8ZM313.441 82.6C313.841 82.8667 314.075 83.2167 314.141 83.65C314.208 84.05 314.108 84.45 313.841 84.85C313.608 85.15 313.308 85.3167 312.941 85.35C312.575 85.3833 312.225 85.3167 311.891 85.15C310.625 84.3167 309.258 83.6667 307.791 83.2C306.358 82.7333 304.808 82.5 303.141 82.5C301.108 82.5 299.208 82.8667 297.441 83.6C295.708 84.3 294.191 85.3333 292.891 86.7C291.591 88.0333 290.575 89.6167 289.841 91.45C289.141 93.2833 288.791 95.3 288.791 97.5C288.791 99.7667 289.158 101.833 289.891 103.7C290.625 105.533 291.641 107.117 292.941 108.45C294.275 109.783 295.808 110.8 297.541 111.5C299.275 112.2 301.141 112.55 303.141 112.55C304.775 112.55 306.308 112.317 307.741 111.85C309.208 111.383 310.575 110.75 311.841 109.95C312.175 109.75 312.525 109.683 312.891 109.75C313.291 109.783 313.608 109.967 313.841 110.3C314.141 110.667 314.241 111.067 314.141 111.5C314.075 111.9 313.858 112.217 313.491 112.45C312.658 112.983 311.675 113.483 310.541 113.95C309.408 114.417 308.208 114.783 306.941 115.05C305.675 115.35 304.408 115.5 303.141 115.5C300.741 115.5 298.491 115.067 296.391 114.2C294.291 113.333 292.425 112.117 290.791 110.55C289.158 108.95 287.875 107.05 286.941 104.85C286.041 102.65 285.591 100.2 285.591 97.5C285.591 94.9 286.041 92.5167 286.941 90.35C287.841 88.15 289.091 86.25 290.691 84.65C292.291 83.05 294.158 81.8 296.291 80.9C298.425 80 300.708 79.55 303.141 79.55C305.041 79.55 306.875 79.8167 308.641 80.35C310.408 80.8833 312.008 81.6333 313.441 82.6ZM339.907 112.05C340.307 112.05 340.657 112.2 340.957 112.5C341.257 112.767 341.407 113.1 341.407 113.5C341.407 113.933 341.257 114.3 340.957 114.6C340.657 114.867 340.307 115 339.907 115H322.057C321.624 115 321.257 114.85 320.957 114.55C320.691 114.25 320.557 113.9 320.557 113.5V81.5C320.557 81.1 320.707 80.75 321.007 80.45C321.307 80.15 321.691 80 322.157 80C322.557 80 322.907 80.15 323.207 80.45C323.541 80.75 323.707 81.1 323.707 81.5V112.9L322.757 112.05H339.907ZM348.669 80H367.019C367.419 80 367.769 80.15 368.069 80.45C368.369 80.7167 368.519 81.0667 368.519 81.5C368.519 81.9333 368.369 82.2833 368.069 82.55C367.769 82.8167 367.419 82.95 367.019 82.95H349.819L350.319 82.1V96.15L349.769 95.5H364.769C365.169 95.5 365.519 95.65 365.819 95.95C366.119 96.25 366.269 96.6 366.269 97C366.269 97.4333 366.119 97.7833 365.819 98.05C365.519 98.3167 365.169 98.45 364.769 98.45H349.869L350.319 97.95V112.35L350.069 112.05H367.019C367.419 112.05 367.769 112.2 368.069 112.5C368.369 112.8 368.519 113.15 368.519 113.55C368.519 113.983 368.369 114.333 368.069 114.6C367.769 114.867 367.419 115 367.019 115H348.669C348.269 115 347.919 114.85 347.619 114.55C347.319 114.25 347.169 113.9 347.169 113.5V81.5C347.169 81.1 347.319 80.75 347.619 80.45C347.919 80.15 348.269 80 348.669 80ZM377.287 115C376.787 115 376.37 114.85 376.037 114.55C375.737 114.25 375.587 113.9 375.587 113.5V81.5C375.587 81.1 375.737 80.75 376.037 80.45C376.337 80.15 376.687 80 377.087 80H390.587C392.487 80 394.187 80.4167 395.687 81.25C397.187 82.05 398.353 83.1667 399.187 84.6C400.053 86.0333 400.487 87.65 400.487 89.45C400.487 90.9167 400.22 92.2667 399.687 93.5C399.153 94.7333 398.403 95.7833 397.437 96.65C396.47 97.4833 395.387 98.1 394.187 98.5L392.437 97.95C393.67 98.05 394.82 98.45 395.887 99.15C396.953 99.8167 397.803 100.75 398.437 101.95C399.103 103.117 399.453 104.533 399.487 106.2C399.52 107.633 399.587 108.75 399.687 109.55C399.82 110.35 400.003 110.95 400.237 111.35C400.47 111.75 400.77 112.067 401.137 112.3C401.47 112.5 401.687 112.783 401.787 113.15C401.92 113.517 401.887 113.867 401.687 114.2C401.553 114.467 401.353 114.667 401.087 114.8C400.853 114.9 400.603 114.95 400.337 114.95C400.07 114.95 399.803 114.883 399.537 114.75C399.07 114.483 398.587 114.067 398.087 113.5C397.62 112.933 397.22 112.1 396.887 111C396.587 109.9 396.437 108.367 396.437 106.4C396.437 105.1 396.22 104.033 395.787 103.2C395.387 102.367 394.853 101.733 394.187 101.3C393.553 100.833 392.837 100.517 392.037 100.35C391.27 100.15 390.537 100.05 389.837 100.05H378.187L378.737 99.35V113.5C378.737 113.9 378.603 114.25 378.337 114.55C378.07 114.85 377.72 115 377.287 115ZM378.187 97.3H390.737C391.87 97.2 392.937 96.8333 393.937 96.2C394.937 95.5333 395.737 94.6333 396.337 93.5C396.97 92.3667 397.287 91.05 397.287 89.55C397.287 87.65 396.637 86.0833 395.337 84.85C394.07 83.5833 392.403 82.95 390.337 82.95H378.387L378.737 82.25V98L378.187 97.3Z" fill="white"/>
<rect y="9" width="112" height="110" rx="18" fill="#1C2536"/>
<g filter="url(#filter0_d_535_29)">
<path d="M80.8273 89.1352C78.2137 89.7625 75.7345 90.4104 73.2348 90.9308C71.9122 91.2075 71.418 92.3579 70.6033 93.1932C70.3746 93.4289 70.5647 93.7002 70.7071 93.9524C71.0876 94.6262 71.4816 95.2917 71.834 95.9844C72.5513 97.3946 72.0248 98.5739 70.7129 98.4869C67.9505 98.3022 65.3137 97.2733 62.7518 95.7357C62.0442 95.3103 61.3382 94.9151 60.8748 94.0618C60.605 93.5663 60.4517 93.0659 60.4687 92.5017C60.5414 89.8545 61.4246 87.7651 63.04 86.1748C63.5352 85.6884 64.101 85.6844 64.754 86.2826C65.4645 86.9344 65.5069 86.0395 65.8173 85.8003C66.1879 85.5132 65.8756 85.2701 65.6571 85.0287C65.3327 84.6689 65.2031 84.2208 65.2273 83.7376C65.3094 82.1606 65.2175 80.5043 65.5443 79.0324C65.818 77.7941 66.0732 76.4846 66.4992 75.3602C66.946 74.1796 67.7545 73.1494 68.6184 72.289C69.4646 71.4469 70.2494 70.5435 70.8615 69.436C70.9071 69.3553 70.9493 69.2624 71.0134 69.2092C72.2228 68.1957 72.9221 66.5607 74.1271 65.5441C74.5727 65.168 74.7355 64.5163 75.1135 64.0698C75.6896 63.3855 76.3331 62.7957 76.8991 62.0946C77.7133 61.0845 78.3385 59.8749 79.2956 59.0077C79.78 58.5702 80.2443 58.204 80.861 58.0697C83.2576 57.5459 85.6525 57.016 88.0028 56.3174C88.3876 56.2033 88.7659 56.0605 89.1827 56.0837C89.4348 56.097 89.6237 55.9754 89.7908 55.777C90.4942 54.9406 91.1497 54.1397 91.2616 52.7596C91.4202 50.809 92.2594 49.2631 93.4363 48.012C94.2065 47.1936 94.7341 47.1852 95.6377 48.0879C97.0561 49.5057 98.3157 51.1197 99.5221 52.7881C100.565 54.2299 101.53 55.7422 102.376 57.3517C102.683 57.9349 103.001 58.5435 102.726 59.177C102.418 59.883 101.912 60.1825 101.166 60.074C100.152 59.9261 99.1376 59.844 98.1371 59.4781C97.7501 59.3372 97.4795 59.4318 97.2365 59.7589C96.8444 60.2859 96.4341 60.7918 96.0138 61.2875C95.7991 61.541 95.7382 61.7288 96.0679 62.0084C96.5705 62.431 96.7133 63.0371 96.6693 63.6855C96.5711 65.1316 96.6166 66.6437 96.3049 67.9956C96.0089 69.2795 95.6849 70.5759 95.3075 71.8088C94.9602 72.9435 94.1417 73.8521 93.371 74.6749C92.4914 75.6162 91.6404 76.5712 90.9417 77.7209C90.6711 78.1673 90.3431 78.5733 89.949 78.8954C89.5808 79.1971 89.2728 79.5864 89.0241 80.0419C88.723 80.5975 88.3714 81.0998 87.8794 81.4368C87.757 81.5198 87.6349 81.6289 87.558 81.7666C86.4339 83.7587 84.7162 85.0766 83.5171 87.0026C82.8508 88.0623 82.0073 89.0806 80.8273 89.1352ZM72.7418 67.9537C72.8819 68.0252 72.9579 68.0757 73.038 68.1031C76.005 69.1537 78.9736 70.2039 81.9417 71.252C82.6718 71.5092 83.3562 71.8778 83.9567 72.5019C84.5389 73.1051 84.8073 73.8982 84.5559 74.3566C84.3189 74.7913 83.737 74.7015 83.0425 74.0998C82.5447 73.6693 82.0511 73.2288 81.4673 73.0216C78.8186 72.0747 76.1659 71.1508 73.5197 70.1879C71.0308 69.2828 71.4473 69.6688 70.0715 71.241C69.5845 71.7994 69.6329 71.932 70.3569 72.1866C73.2192 73.1972 76.0815 74.2077 78.9469 75.2043C79.7092 75.4698 80.4022 75.8993 80.9834 76.5792C81.3909 77.0574 81.7206 77.6888 81.4044 78.2596C81.0538 78.8949 80.5258 78.414 80.0819 78.1167C79.7877 77.9187 79.5098 77.6789 79.2247 77.4631C78.7415 77.0961 78.2249 76.8588 77.6906 76.6769C76.6493 76.3226 75.6101 75.9569 74.572 75.5886C72.8333 74.9744 71.0977 74.3462 69.3566 73.7479C68.7127 73.5273 68.1287 73.5911 67.7365 74.2842C69.4904 74.9028 71.2017 75.5074 72.914 76.1095C74.3764 76.6255 75.8551 77.0691 77.2992 77.6756C79.5137 78.6064 80.871 80.6186 81.7286 83.1447C81.9176 83.7026 82.0404 83.8555 82.3905 83.3974C83.0889 82.4815 83.8184 81.6005 84.533 80.7041C87.7697 76.6369 91.0065 72.5698 94.2438 68.5046C94.4423 68.2557 94.6597 68.0364 94.5308 67.5968C93.8844 65.3667 92.7955 63.5052 91.0177 62.334C89.685 61.4576 88.209 61.1902 86.7945 60.6693C84.9749 59.9994 83.1493 59.3706 81.3238 58.7418C80.7867 58.5563 80.2685 58.5358 79.8476 59.1037C79.9844 59.1696 80.0593 59.216 80.1376 59.2439C83.1271 60.2991 86.1165 61.3542 89.1059 62.4028C89.8201 62.6537 90.4704 63.0757 91.0559 63.6473C91.6099 64.1885 91.8576 65.0881 91.6157 65.5241C91.3882 65.9364 90.8494 65.8562 90.164 65.2432C89.5372 64.6812 88.8776 64.2575 88.141 64.0021C85.4899 63.0777 82.8412 62.1308 80.1909 61.1844C78.5481 60.5974 77.4419 61.1947 76.7895 63.0501C79.7165 64.0902 82.6388 65.1383 85.5624 66.1663C86.4411 66.4752 87.289 66.8496 88.009 67.621C88.5035 68.1508 88.7493 69.0378 88.5059 69.4437C88.2699 69.8387 87.7289 69.757 87.1024 69.2145C86.5687 68.7506 86.0315 68.2744 85.4099 68.0518C82.4239 66.9782 79.434 65.9276 76.4445 64.8659C76.0038 64.7097 75.5847 64.7221 75.195 64.9359C75.0263 65.0299 74.8282 65.1563 74.8489 65.4017C74.8715 65.6662 75.1196 65.6348 75.2747 65.6911C77.4986 66.4881 79.7276 67.2598 81.9491 68.0794C83.1081 68.5071 84.3071 68.7661 85.3935 69.5445C85.9558 69.9479 86.4296 70.4487 86.5779 71.2345C86.7161 71.9599 86.3861 72.3031 85.7879 72.0825C85.5994 72.0139 85.3857 71.9437 85.2389 71.7933C84.1162 70.6407 82.7753 70.2976 81.4631 69.8327C79.2163 69.0356 76.9709 68.225 74.7235 67.4258C73.9681 67.154 73.283 67.1657 72.7418 67.9537ZM66.6041 82.9407C67.7587 82.0871 68.8666 82.3415 69.9985 82.9212C71.6628 83.7751 72.9818 85.1405 73.9647 86.982C74.1959 87.4164 74.3914 87.719 74.8437 87.4961C76.9787 86.4438 79.1227 85.4107 81.2645 84.3761C81.56 84.2329 81.6768 83.9942 81.5474 83.5962C80.7768 81.1961 79.5907 79.074 77.5113 78.2094C74.4729 76.9454 71.3734 75.9675 68.2945 74.9073C67.2674 74.5534 66.6323 75.0491 66.6023 76.29C66.5518 78.4348 66.5976 80.5959 66.6041 82.9407ZM98.5277 55.7287C98.0228 53.952 96.2287 52.001 94.7078 51.5759C94.1356 51.4157 93.6474 51.5374 93.2646 52.0224C92.3175 53.2211 91.3794 54.4325 90.4107 55.6046C90.036 56.0567 90.0595 56.2379 90.633 56.4895C92.5722 57.3437 94.1025 58.839 95.0893 61.0835C95.3006 61.5651 95.4236 61.447 95.6327 61.1798C96.4802 60.1013 97.3249 59.0192 98.1968 57.9709C98.7171 57.344 98.776 56.5996 98.5277 55.7287ZM94.7206 67.0336C94.8124 65.3053 94.8859 63.7788 94.9771 62.2583C95.0009 61.8603 94.9477 61.4822 94.77 61.1243C93.6455 58.8666 92.0454 57.3672 89.9914 56.6288C89.481 56.4443 88.947 56.424 88.4634 56.599C86.5703 57.283 84.5931 57.6414 82.6407 58.0932C82.3664 58.1561 82.0979 58.2458 81.8276 58.3229C82.2751 58.6388 82.6934 58.7905 83.1127 58.9397C85.4419 59.7723 87.77 60.614 90.1006 61.4331C91.0417 61.7635 91.8256 62.4008 92.5614 63.2093C93.5047 64.2513 94.1572 65.4899 94.7206 67.0336ZM73.7879 87.8627C73.2272 85.9642 70.5473 83.3765 68.9377 83.1406C68.5755 83.0866 68.3366 83.2618 68.1158 83.5432C67.3662 84.5021 66.6167 85.4609 65.8432 86.3916C65.5349 86.7613 65.5084 87.0202 65.8907 87.4596C67.3009 89.0831 68.6779 90.7509 69.8483 92.6328C70.1088 93.0523 70.2728 92.9728 70.4973 92.6859C71.5389 91.3554 72.5887 90.0357 73.6458 88.7226C73.8549 88.4619 73.9254 88.1905 73.7879 87.8627ZM60.8339 93.1711C61.0587 93.9285 61.4569 94.4115 61.953 94.7617C62.4754 95.1306 63.016 95.4703 63.5625 95.7755C65.8373 97.0409 68.1684 97.9364 70.5955 98.0812C71.5144 98.136 71.6878 97.7129 71.2063 96.7162C70.6286 95.5174 69.9092 94.4269 69.1935 93.3374C67.7724 91.1752 66.2117 89.1598 64.4695 87.3536C63.7023 86.5585 63.2203 86.5539 62.5621 87.3206C61.6312 88.4032 61.1127 89.7834 60.9086 91.3646C60.8325 91.9806 60.6909 92.5956 60.8339 93.1711ZM75.0209 87.852C75.7049 88.0218 76.3005 87.8258 76.8763 87.548C78.4428 86.7867 80.0122 86.0355 81.5697 85.2549C82.2118 84.9319 82.9187 84.7129 83.4098 84.1009C87.4373 79.0588 91.4587 74.0075 95.4785 68.9567C95.7325 68.6373 95.9462 68.2814 95.9791 67.7979C96.0762 66.3783 96.1754 64.9603 96.2746 63.5424C96.2943 63.2593 96.2932 62.9777 96.1696 62.7048C96.0314 62.399 95.8194 62.1558 95.5484 62.15C95.2054 62.1451 95.3008 62.5352 95.2878 62.7924C95.1969 64.3938 95.113 65.9953 95.0313 67.5983C95.0105 68.0194 94.8909 68.3594 94.6524 68.6591C91.0419 73.1693 87.4137 77.6605 83.8526 82.2266C82.6834 83.7268 81.4055 84.9324 79.7287 85.6094C78.1217 86.2533 76.5869 87.0952 75.0209 87.852ZM91.5642 53.5124C92.0787 52.8653 92.6161 52.428 92.8583 51.6597C93.0818 50.9492 93.517 50.5673 94.1852 50.5581C94.2991 50.5563 94.4585 50.6091 94.4808 50.3908C94.3526 50.1696 94.1897 49.9625 94.1059 49.7242C93.9434 49.2593 94.0645 48.9494 94.4897 48.9462C95.0691 48.9405 95.6575 49.8062 95.4479 50.4232C95.3237 50.7907 95.4374 50.8435 95.6698 50.9608C96.977 51.6303 97.9557 52.7781 98.7535 54.1741C99.8509 56.0965 99.7252 57.3166 98.3162 58.5006C98.201 58.5968 98.0361 58.6853 98.0636 58.8807C98.101 59.1475 98.3298 59.1413 98.4859 59.1885C99.4073 59.4743 100.334 59.5684 101.26 59.6606C102.122 59.7467 102.345 59.2987 101.86 58.3641C99.9838 54.741 97.6234 51.588 94.94 48.7719C94.3372 48.1397 93.8662 48.1735 93.3395 48.741C92.6006 49.5394 92.1007 50.5341 91.798 51.6955C91.6596 52.2353 91.5004 52.7636 91.5642 53.5124ZM95.1742 70.3719C94.92 70.3941 94.8517 70.5622 94.7576 70.683C91.3812 74.9211 88.0097 79.1643 84.6249 83.3917C84.1227 84.02 83.7066 84.7898 83.011 85.1476C82.5442 85.3878 82.4038 85.7228 82.5798 86.3216C82.642 86.5333 82.5566 86.8329 82.805 86.926C82.9964 86.9982 83.091 86.768 83.1985 86.6324C84.5742 84.9117 85.946 83.1898 87.3195 81.4675C89.7723 78.393 92.2168 75.3077 94.6874 72.2522C95.1062 71.7329 95.2357 71.1432 95.1742 70.3719ZM81.0602 88.6427C82.0036 88.4502 82.3725 87.7988 82.2742 86.5464C82.2092 85.7193 82.0789 85.6144 81.4752 85.9177C80.1465 86.5806 78.8268 87.2628 77.4879 87.9024C76.8417 88.2112 76.2147 88.6674 75.4579 88.5511C74.7393 88.4392 74.5182 88.7382 74.4874 89.5686C74.4654 90.1583 74.5226 90.2293 74.9712 90.1167C76.9967 89.6069 79.0299 89.1299 81.0602 88.6427ZM78.8173 60.1339C80.3093 60.6611 81.719 61.0851 83.099 61.664C85.6163 62.7183 88.3168 62.9577 90.616 65.0007C90.7957 65.1614 91.0826 65.3527 91.2541 65.0525C91.4154 64.7662 91.2743 64.4503 91.0819 64.2014C90.6058 63.5877 90.0279 63.1603 89.3805 62.9276C86.3523 61.8354 83.3232 60.7523 80.2937 59.6801C79.7434 59.4853 79.2275 59.51 78.8173 60.1339ZM71.7276 69.0033C73.6022 69.6684 75.4128 70.2446 77.1966 70.9618C79.3025 71.8079 81.5553 72.0395 83.4497 73.8177C83.656 74.0101 84.0119 74.2517 84.1993 73.8902C84.3619 73.5772 84.1397 73.2364 83.927 72.9845C83.3079 72.2521 82.5588 71.8539 81.7592 71.5815C80.6122 71.1897 79.4712 70.7634 78.3252 70.3625C76.6064 69.7623 74.8865 69.1645 73.1663 68.5778C72.6298 68.3943 72.1373 68.4211 71.7276 69.0033ZM73.6834 66.5381C75.2394 67.0799 76.7131 67.5184 78.1554 68.1123C80.6302 69.1284 83.2797 69.3868 85.5326 71.3971C85.7073 71.5527 85.9549 71.6984 86.1151 71.4451C86.2785 71.191 86.1561 70.885 85.9994 70.6566C85.5683 70.0278 85.0085 69.6084 84.3858 69.3817C81.301 68.2576 78.2137 67.1495 75.1254 66.0505C74.5674 65.8534 74.0628 65.9361 73.6834 66.5381ZM75.7061 64.067C77.5307 64.7048 79.2796 65.244 80.9998 65.9356C83.1671 66.8056 85.4874 67.0333 87.4351 68.8684C87.6398 69.0613 87.9444 69.2345 88.1264 68.9095C88.2924 68.6087 88.0958 68.302 87.9107 68.0664C87.3802 67.3917 86.721 66.994 86.0122 66.7373C84.8275 66.306 83.6408 65.8861 82.4541 65.4663C80.7166 64.8495 78.9799 64.2238 77.2389 63.6321C76.681 63.4415 76.114 63.3672 75.7061 64.067ZM68.6176 72.9098C70.7275 73.6651 72.7765 74.3613 74.8114 75.138C76.6704 75.8468 78.6442 76.1187 80.29 77.7165C80.373 77.7977 80.4908 77.834 80.5945 77.8766C80.7672 77.9453 80.9445 77.9865 81.0627 77.8021C81.1766 77.621 81.1085 77.4132 81.0313 77.2167C80.9083 76.9087 80.6772 76.7343 80.4578 76.539C79.6337 75.8038 78.694 75.5277 77.7605 75.1995C75.3264 74.3444 72.8942 73.4712 70.462 72.6046C69.7944 72.3689 69.1572 72.2643 68.6176 72.9098ZM63.7089 86.2113C67.0416 89.2051 69.5651 93.0042 71.8371 97.1438C71.8751 96.7396 71.7313 96.4638 71.5858 96.1884C69.784 92.8085 67.5955 89.8075 65.1122 87.1004C64.7074 86.6564 64.2719 86.2715 63.7089 86.2113ZM102.463 58.7187C102.5 58.2559 102.333 57.9343 102.157 57.6216C100.296 54.2609 98.117 51.2135 95.5876 48.5173C95.0965 47.9931 94.7929 47.8546 94.4623 47.8746C97.6319 50.7902 100.193 54.537 102.463 58.7187ZM66.2338 78.3878C65.9172 78.5371 65.8523 78.7479 65.8394 78.9745C65.7377 80.6182 65.6413 82.2626 65.5505 83.9076C65.5286 84.294 65.683 84.6193 65.9593 84.8595C66.1394 85.0158 66.2964 85.054 66.2928 84.7142C66.2742 82.6481 66.2539 80.5824 66.2338 78.3878Z" fill="white"/>
<path d="M77.9247 81.9438C78.1846 82.8617 77.7348 83.9208 76.9882 84.149C76.2122 84.3855 75.2506 83.7114 74.996 82.7505C74.7495 81.8244 75.2143 80.7807 75.9677 80.5702C76.7212 80.3598 77.6635 81.0219 77.9247 81.9438Z" fill="white"/>
<path d="M63.6463 89.5549C64.1066 89.4586 64.6419 89.6009 65.1545 89.8918C66.5849 90.7032 67.6192 91.9903 68.2146 93.7389C68.7861 95.4158 67.9668 96.5933 66.5207 96.2147C64.9816 95.8123 63.0764 93.6199 62.6715 91.7863C62.4277 90.678 62.7901 89.7815 63.6463 89.5549ZM67.7434 93.4079C67.1876 92.0019 66.143 90.6478 64.5424 90.0423C63.4013 89.6095 62.8116 90.2583 63.2077 91.5919C63.7808 93.5217 64.9208 94.9076 66.5534 95.5389C67.8114 96.0236 68.3042 95.3128 67.7434 93.4079Z" fill="white"/>
</g>
<g filter="url(#filter1_d_535_29)">
<path d="M84.6736 36.1584C84.3295 35.5599 83.5558 35.1636 82.9503 35.5256L82.3118 35.9086C81.4463 36.427 80.9235 35.7233 80.7892 35.5039L78.8128 32.069C78.6743 31.829 75.3574 26.1798 69.4603 26.1151L45.737 26.2991L45.6609 26.2997C45.6601 26.2997 45.6601 26.2997 45.6585 26.2997C38.4488 26.2283 34.4191 31.8972 34.2519 32.1395C34.2398 32.1553 34.2311 32.1719 34.2215 32.1885L28.0876 43.2879C27.7189 43.9504 27.7186 44.6671 28.0857 45.305C28.4143 45.8764 28.9238 46.2028 28.9945 46.2453L43.9866 54.9319C44.0378 54.9612 44.5104 55.2244 45.1404 55.2188C45.7421 55.2143 46.5927 54.9668 47.2327 53.8152L56.5303 37.0831L62.0769 46.7234C62.5669 47.5735 62.1667 47.9282 62.0404 48.0109L61.2892 48.4616C60.6 48.8746 60.3395 49.8385 60.7353 50.5241C60.9344 50.8694 61.2693 51.094 61.6797 51.1553L77.9246 53.5731C78.174 53.61 78.4156 53.4678 78.51 53.2293L84.7609 37.3409C84.9256 36.9714 84.8932 36.5398 84.6736 36.1584ZM46.2848 53.2658C45.6088 54.4813 44.6974 54.058 44.5261 53.9635L29.5494 45.2858C29.5462 45.2841 29.2179 45.0736 29.0269 44.7406C28.8557 44.4438 28.8592 44.1573 29.0372 43.8364L35.1559 32.7635C35.2783 32.5942 36.1593 31.4308 37.6918 30.2311L36.7461 31.9325C36.5977 32.2003 36.6884 32.5398 36.9516 32.6923C37.2139 32.8439 37.5464 32.7505 37.6949 32.4819L39.6707 28.9282C40.4094 28.5272 41.2349 28.1733 42.1395 27.9065L39.8372 32.048C39.6888 32.3158 39.7811 32.6545 40.0427 32.8069C40.3042 32.9594 40.6375 32.866 40.7868 32.5982L43.5766 27.5778C44.2091 27.4731 44.8726 27.4128 45.5682 27.4142L42.9283 32.1635C42.7799 32.4313 42.8714 32.7708 43.1338 32.9232C43.3961 33.0757 43.7286 32.9807 43.8779 32.7129L46.7699 27.5084C47.3537 27.599 47.9088 27.7459 48.4286 27.9434L46.0194 32.279C45.871 32.546 45.9625 32.8855 46.2241 33.0379C46.4864 33.1904 46.8189 33.097 46.969 32.8292L49.4293 28.4016C49.9367 28.6678 50.4056 28.969 50.8342 29.2911L49.1097 32.3945C48.9605 32.6623 49.0536 33.0018 49.316 33.1542C49.5775 33.3059 49.91 33.2117 50.0593 32.9439L51.6968 29.9971C52.1683 30.4229 52.5726 30.8476 52.9079 31.2389L52.2017 32.5108C52.0524 32.7778 52.1439 33.1173 52.4063 33.2697C52.6687 33.4222 53.0012 33.3289 53.1504 33.061L53.6436 32.1722C53.9157 32.5516 54.0688 32.804 54.0738 32.8147L55.8912 35.9716L46.2848 53.2658ZM83.7573 36.9042L77.6587 52.4076L61.8389 50.0535C61.7329 50.0386 61.697 49.9959 61.6765 49.9606C61.6011 49.829 61.6378 49.5464 61.8423 49.4235L62.5943 48.9736C63.0162 48.7194 63.9161 47.7202 63.0181 46.1598L55.0158 32.2527C54.915 32.0768 53.1366 29.0492 49.9886 27.3818L69.4581 27.2306C74.7203 27.2886 77.8413 32.5817 77.8724 32.6343L79.852 36.074C80.3083 36.8468 81.4873 37.6958 82.8641 36.8697L83.476 36.5026C83.5344 36.517 83.6595 36.5937 83.7324 36.7228C83.7464 36.7466 83.7907 36.8297 83.7573 36.9042Z" fill="white"/>
<path d="M84.2403 36.4078L84.2402 36.4076C84.1213 36.2008 83.9256 36.029 83.7195 35.9441C83.5196 35.8617 83.346 35.8718 83.2075 35.9544L84.2403 36.4078ZM84.2403 36.4078C84.3887 36.6656 84.3971 36.929 84.3042 37.1374L84.2997 37.1476L84.2957 37.1579L78.0452 53.0452C78.0451 53.0453 78.0451 53.0454 78.045 53.0455C78.0335 53.0742 78.0109 53.0804 77.9979 53.0785L61.7536 50.6608C61.4877 50.6211 61.2882 50.4822 61.1684 50.2744L61.1683 50.2742C60.9133 49.8323 61.0837 49.1676 61.5462 48.8904L61.5464 48.8903L62.2976 48.4396L62.306 48.4346L62.3142 48.4293C62.4416 48.3459 62.6765 48.1462 62.773 47.7833C62.8713 47.4133 62.799 46.975 62.5101 46.4737L56.9637 36.8338L56.5228 36.0674L56.0933 36.8403L46.7956 53.5723C46.7956 53.5723 46.7956 53.5723 46.7956 53.5723C46.2521 54.5504 45.5772 54.7155 45.1367 54.7188L45.136 54.7189C44.6418 54.7232 44.2643 54.5147 44.2361 54.4986C44.2358 54.4984 44.2355 54.4983 44.2353 54.4981L29.2493 45.815C29.1959 45.7823 28.781 45.5111 28.5192 45.0558L28.5191 45.0556C28.2426 44.5751 28.2382 44.0454 28.5245 43.531L28.5252 43.5297L34.6573 32.4335L34.6595 32.4298L34.6614 32.4264L34.6615 32.4262L34.6634 32.4235C34.8161 32.2021 38.7131 26.731 45.6535 26.7997L45.6535 26.7997L45.6622 26.7997L45.6623 26.7997L45.6623 26.7997L45.6623 26.7997L45.6623 26.7997L45.6623 26.7997L45.6624 26.7997L45.6624 26.7997L45.6624 26.7997L45.6624 26.7997L45.6624 26.7997L45.6624 26.7997L45.6625 26.7997L45.6625 26.7997L45.6625 26.7997L45.6625 26.7997L45.6625 26.7997L45.6625 26.7997L45.6626 26.7997L45.6626 26.7997L45.6626 26.7997L45.6626 26.7997L45.6626 26.7997L45.6626 26.7997L45.6627 26.7997L45.6627 26.7997L45.6627 26.7997L45.6627 26.7997L45.6627 26.7997L45.6627 26.7997L45.6628 26.7997L45.6628 26.7997L45.6628 26.7997L45.6628 26.7997L45.6628 26.7997L45.6628 26.7997L45.6629 26.7997L45.6629 26.7997L45.6629 26.7997L45.6629 26.7997L45.6629 26.7997L45.663 26.7997L45.663 26.7997L45.663 26.7997L45.663 26.7997L45.663 26.7997L45.6631 26.7997L45.6631 26.7997L45.6631 26.7997L45.6631 26.7997L45.6631 26.7997L45.6631 26.7997L45.6632 26.7997L45.6632 26.7997L45.6632 26.7997L45.6632 26.7997L45.6632 26.7997L45.6633 26.7997L45.6633 26.7997L45.6633 26.7997L45.6633 26.7997L45.6633 26.7997L45.6633 26.7997L45.6633 26.7997L45.6634 26.7997L45.6634 26.7997L45.6634 26.7997L45.6634 26.7997L45.6634 26.7997L45.6634 26.7997L45.6635 26.7997L45.6635 26.7997L45.6635 26.7997L45.6635 26.7997L45.6635 26.7997L45.6636 26.7997L45.6636 26.7997L45.6636 26.7997L45.6636 26.7997L45.6636 26.7997L45.6636 26.7997L45.6637 26.7997L45.6637 26.7997L45.6637 26.7997L45.6637 26.7997L45.6637 26.7997L45.6637 26.7997L45.6637 26.7997L45.6638 26.7997L45.6638 26.7997L45.6638 26.7997L45.6638 26.7997L45.6638 26.7997L45.6638 26.7997L45.6639 26.7997L45.6639 26.7997L45.6639 26.7997L45.6639 26.7997L45.6639 26.7997L45.6639 26.7997L45.664 26.7997L45.664 26.7997L45.664 26.7997L45.664 26.7997L45.664 26.7997L45.664 26.7997L45.6641 26.7997L45.6641 26.7997L45.6641 26.7997L45.6641 26.7997L45.6641 26.7997L45.6641 26.7997L45.6642 26.7997L45.6642 26.7997L45.6642 26.7997L45.6642 26.7997L45.6642 26.7997L45.6642 26.7997L45.6642 26.7997L45.6643 26.7997L45.6643 26.7997L45.6643 26.7997L45.6643 26.7997L45.6643 26.7997L45.6643 26.7997L45.6644 26.7997L45.6644 26.7997L45.6644 26.7997L45.6644 26.7997L45.6644 26.7997L45.6644 26.7997L45.6645 26.7997L45.6645 26.7997L45.6645 26.7997L45.6645 26.7997L45.6645 26.7997L45.6645 26.7997L45.6646 26.7997L45.6646 26.7997L45.6646 26.7997L45.6646 26.7997L45.6646 26.7997L45.6646 26.7997L45.6647 26.7997L45.7407 26.7991L45.7408 26.7991M84.2403 36.4078L45.7408 26.7991M45.7408 26.7991L69.4594 26.6152M45.7408 26.7991L69.4594 26.6152M46.7218 53.5085L46.7217 53.5088C46.317 54.2365 45.7878 54.5498 45.2673 54.6033C44.7864 54.6527 44.4082 54.4694 44.2846 54.4013L44.2753 54.3962L44.2754 54.3961L29.2987 45.7184L29.2956 45.7166L29.288 45.712L29.2811 45.7077L29.2722 45.702L29.2529 45.6891C29.2383 45.6792 29.2193 45.6659 29.197 45.6495C29.1524 45.6167 29.0929 45.5703 29.0265 45.5113C28.897 45.3962 28.725 45.2193 28.5932 44.9894C28.4709 44.7771 28.3982 44.5442 28.4011 44.2918C28.404 44.0415 28.4808 43.8088 28.5997 43.5943C28.5998 43.5942 28.5998 43.594 28.5999 43.5939L34.7182 32.5217L34.7329 32.4951L34.7507 32.4705C34.8921 32.275 35.8043 31.0737 37.3836 29.8374L38.1288 30.474L37.1834 32.1749C37.1834 32.1749 37.1834 32.175 37.1834 32.175C37.1746 32.1909 37.1727 32.2086 37.1773 32.2256C37.1818 32.2423 37.191 32.2531 37.2022 32.2596L46.7218 53.5085ZM46.7218 53.5085L56.3283 36.2144L56.4656 35.9672L56.3245 35.7221L54.5107 32.5715L54.5102 32.5706L54.5042 32.56L54.494 32.5426C54.4871 32.5311 54.4782 32.5165 54.4675 32.4994C54.4461 32.4649 54.416 32.4174 54.3777 32.3586C54.3011 32.2411 54.1906 32.077 54.0499 31.8808L53.5895 31.239L53.2064 31.9296L52.7136 32.8177C52.7136 32.8177 52.7136 32.8178 52.7135 32.8179C52.7051 32.8328 52.6947 32.839 52.6857 32.8416C52.6769 32.8441 52.668 32.8435 52.6575 32.8374C52.6463 32.8309 52.6369 32.8199 52.6324 32.8031C52.6278 32.7862 52.6299 32.7695 52.6381 32.7548L52.6388 32.7535L53.345 31.4817L53.5138 31.1776L53.2876 30.9136C52.9395 30.5074 52.5204 30.0673 52.0319 29.6261L51.5652 29.2045L51.2598 29.7543L49.6225 32.7005C49.6224 32.7006 49.6224 32.7008 49.6223 32.7009C49.6138 32.716 49.603 32.7226 49.5936 32.7253C49.5845 32.7278 49.5763 32.7271 49.5672 32.7219C49.5554 32.7151 49.5456 32.7034 49.5409 32.6862C49.5363 32.6692 49.5384 32.6525 49.5465 32.6379L49.5468 32.6374L51.2713 29.5339L51.4829 29.1531L51.1346 28.8913C50.6857 28.554 50.1941 28.2382 49.6615 27.9588L49.2293 27.7321L48.9922 28.1588L46.5328 32.5848C46.5327 32.5849 46.5327 32.585 46.5326 32.5851C46.5239 32.6006 46.5129 32.6071 46.5037 32.6097C46.4946 32.6123 46.4857 32.6117 46.4753 32.6056L46.2241 33.0379L46.4758 32.6059C46.465 32.5996 46.4554 32.5886 46.4508 32.5713C46.4461 32.5538 46.4483 32.5367 46.4564 32.522L46.4565 32.5219L48.8657 28.1863L49.1463 27.6813L48.6063 27.4761C48.0528 27.2657 47.4638 27.1101 46.8465 27.0143L46.5021 26.9609L46.3328 27.2655L43.4411 32.4695C43.4411 32.4696 43.441 32.4697 43.441 32.4697C43.4323 32.4853 43.4212 32.492 43.4118 32.4946C43.4028 32.4972 43.3946 32.4965 43.385 32.4909C43.3738 32.4844 43.3643 32.4734 43.3597 32.4562C43.3551 32.439 43.357 32.4216 43.3655 32.4061C43.3656 32.406 43.3656 32.406 43.3657 32.4059L46.0052 27.6571L46.4172 26.9159L45.5692 26.9142C44.8439 26.9128 44.1527 26.9757 43.495 27.0845L43.2568 27.1239M46.7218 53.5085L43.2568 27.1239M43.2568 27.1239L43.1396 27.3349M43.2568 27.1239L43.1396 27.3349M43.1396 27.3349L40.35 32.3549C40.35 32.3549 40.35 32.3549 40.35 32.3549C40.3418 32.3696 40.3313 32.3761 40.3219 32.3787C40.3126 32.3813 40.304 32.3805 40.2944 32.3749C40.283 32.3683 40.2734 32.3569 40.2688 32.3398M43.1396 27.3349L40.2688 32.3398M69.4594 26.6152C72.239 26.6471 74.4279 27.9935 75.9583 29.3951C77.487 30.7951 78.3208 32.2169 78.3794 32.3184L69.4594 26.6152ZM40.2688 32.3398C40.2641 32.3228 40.2661 32.3057 40.2745 32.2905M40.2688 32.3398L40.2745 32.2905M40.2745 32.2905C40.2745 32.2904 40.2745 32.2904 40.2746 32.2904L40.2745 32.2905ZM82.569 36.3374L83.2069 35.9548L78.3797 32.3189L80.3558 35.7533L80.3556 35.7534L80.3627 35.7649C80.4476 35.9037 80.6684 36.2223 81.0381 36.4226C81.4482 36.6448 81.9836 36.688 82.5688 36.3375L82.569 36.3374ZM77.5851 52.9021L77.9785 52.9607L78.124 52.5906L84.2198 37.0942C84.2927 36.9203 84.2704 36.7601 84.2464 36.6681C84.222 36.5747 84.1838 36.5044 84.166 36.4736C84.0913 36.3427 83.9946 36.2441 83.9058 36.1751C83.825 36.1122 83.7161 36.0469 83.5961 36.0172L83.3958 35.9677L83.2188 36.0738L82.6069 36.4409L82.6069 36.4409C82.0545 36.7724 81.5783 36.7562 81.1956 36.606C80.7915 36.4474 80.4643 36.1264 80.2839 35.822C80.2835 35.8213 80.283 35.8205 80.2826 35.8198L78.3057 32.3849L78.3058 32.3848L78.3027 32.3797L78.3026 32.3794C78.2729 32.3293 77.4565 30.9491 75.9669 29.5678C74.4773 28.1865 72.2675 26.7615 69.4637 26.7307L69.4637 26.7306L69.4543 26.7307L49.9847 26.8818L49.7545 27.8237C52.7721 29.422 54.492 32.3442 54.582 32.5013L54.5824 32.5021L62.5847 46.4092L62.5847 46.4092C62.9677 47.0747 62.9428 47.5644 62.8288 47.8926C62.7062 48.2457 62.4598 48.4707 62.3369 48.545C62.3367 48.5451 62.3365 48.5452 62.3363 48.5453L61.5856 48.9944L61.5847 48.9949C61.3444 49.1393 61.2188 49.3674 61.169 49.5689C61.1229 49.7555 61.1228 50 61.2427 50.2092L61.2439 50.2113C61.2772 50.2687 61.3371 50.3548 61.4435 50.4275C61.5452 50.497 61.6574 50.5326 61.7671 50.5483C61.7679 50.5484 61.7686 50.5485 61.7694 50.5486L77.5851 52.9021Z" stroke="white"/>
</g>
<g filter="url(#filter2_d_535_29)">
<path d="M18.2562 54.6174C17.9211 55.221 17.9713 56.1033 18.5814 56.4571L19.2255 56.8304C20.0987 57.3366 19.7627 58.1507 19.6447 58.3787L17.7191 61.8428C17.585 62.0849 14.4521 67.8411 17.3479 73.088L29.3717 93.97L29.4102 94.0366L29.4111 94.0391C32.9577 100.449 39.7817 101.178 40.0707 101.205C40.0893 101.208 40.1087 101.208 40.1273 101.208L52.6119 101.084C53.3575 101.078 53.9654 100.72 54.3238 100.076C54.643 99.5014 54.665 98.8861 54.666 98.8027L54.5352 81.206C54.5348 81.1466 54.5209 80.5984 54.2014 80.0435C53.8974 79.514 53.2618 78.8855 51.9647 78.8953L33.1194 79.0367L38.5219 69.3143C38.9983 68.4569 39.5003 68.634 39.6318 68.704L40.3904 69.1417C41.0858 69.5452 42.0325 69.2929 42.4172 68.6014C42.6111 68.2531 42.6331 67.8434 42.4805 67.4499L36.4044 51.8803C36.3112 51.6407 36.0691 51.4989 35.8203 51.5346L19.2152 53.9488C18.8193 53.9882 18.4693 54.2327 18.2562 54.6174ZM51.9714 80.0099C53.3397 79.9996 53.4371 81.0161 53.4426 81.2151L53.5741 98.7927C53.5742 98.7969 53.5601 99.1917 53.3726 99.5266C53.2066 99.8268 52.9618 99.9673 52.6011 99.97L40.1473 100.094C39.9417 100.071 38.5152 99.8735 36.7303 99.1165L38.6461 99.103C38.9477 99.1007 39.1901 98.8495 39.1886 98.5407C39.1855 98.2336 38.941 97.9861 38.6378 97.9884L34.6363 98.0184C33.9268 97.5647 33.2134 97.0127 32.5347 96.3457L37.2002 96.3107C37.501 96.3084 37.7442 96.058 37.7411 95.7501C37.7396 95.4421 37.4927 95.1938 37.1918 95.1961L31.5374 95.2385C31.1324 94.7321 30.749 94.1768 30.4023 93.5602L35.751 93.52C36.0527 93.5177 36.2951 93.2666 36.2928 92.9586C36.2904 92.6506 36.0444 92.4031 35.7427 92.4054L29.8812 92.4494C29.6659 91.8879 29.5129 91.3235 29.4205 90.7652L34.3035 90.7285C34.6044 90.7263 34.8467 90.4751 34.8444 90.168C34.8429 89.86 34.5968 89.6125 34.2952 89.6139L29.3079 89.6522C29.2809 89.0695 29.3017 88.5037 29.36 87.9633L32.8552 87.937C33.1568 87.9356 33.3992 87.6836 33.3969 87.3757C33.3938 87.0685 33.1485 86.821 32.8469 86.8233L29.5279 86.8482C29.6534 86.2181 29.8117 85.6488 29.9754 85.1563L31.4077 85.1456C31.7077 85.1433 31.9509 84.893 31.9486 84.5842C31.9463 84.277 31.7002 84.0287 31.3993 84.031L30.3981 84.0385C30.5834 83.6086 30.7213 83.3483 30.7277 83.3367L32.4969 80.1536L51.9714 80.0074L51.9714 80.0099ZM19.3456 55.0543L35.5484 52.6992L41.4646 67.8621C41.505 67.9625 41.4868 68.0163 41.4668 68.0512C41.3934 68.1838 41.1354 68.2931 40.9283 68.1741L40.1704 67.7339C39.7448 67.4878 38.4462 67.1912 37.5716 68.7657L29.7774 82.7914C29.6784 82.9688 27.9991 86.0538 28.1604 89.6699L18.2932 72.5319C15.7106 67.8507 18.6391 62.4461 18.6686 62.393L20.5958 58.9239C21.0234 58.133 21.1531 56.6673 19.7641 55.862L19.1468 55.5049C19.1294 55.4456 19.1323 55.2978 19.205 55.1676C19.2177 55.1428 19.2665 55.0631 19.3456 55.0543Z" fill="white"/>
<path d="M29.9271 90.7614L34.3035 90.7285C34.6044 90.7263 34.8467 90.4751 34.8444 90.168C34.8429 89.86 34.5968 89.6125 34.2952 89.6139L29.9271 90.7614ZM29.9271 90.7614C29.9226 90.7354 29.9181 90.7095 29.9138 90.6836L29.4205 90.7652L29.4243 91.2652L29.519 91.2645C29.6094 91.6588 29.7299 92.0548 29.8812 92.4494L35.7427 92.4054C36.0444 92.4031 36.2904 92.6507 36.2928 92.9586C36.2951 93.2666 36.0527 93.5177 35.751 93.52L30.9773 93.5558C30.9302 93.4767 30.8838 93.3964 30.8381 93.3151L30.4023 93.5602L30.406 94.0602L30.698 94.058C30.9627 94.4802 31.2444 94.8721 31.5374 95.2385L37.1918 95.1961C37.4927 95.1938 37.7396 95.4421 37.7411 95.7501C37.7442 96.058 37.501 96.3084 37.2002 96.3107L33.2578 96.3403C33.1326 96.227 33.0083 96.11 32.8852 95.9891L32.5347 96.3457L32.5385 96.8457L33.0691 96.8417C33.5832 97.2924 34.1108 97.6823 34.6363 98.0184L38.6378 97.9884C38.941 97.9861 39.1855 98.2336 39.1886 98.5407M29.9271 90.7614L52.6061 100.47C52.8506 100.468 53.0909 100.419 53.309 100.293C53.5288 100.167 53.691 99.9837 53.8096 99.7696C53.9386 99.5387 54.0023 99.2998 54.0348 99.1294C54.0669 98.9617 54.0744 98.829 54.0741 98.789L53.9426 81.2113L53.9427 81.2113L53.9424 81.2011C53.9385 81.0596 53.905 80.64 53.6265 80.2456C53.3908 79.9118 53.0159 79.6465 52.468 79.5496L52.4676 79.5037L51.9676 79.5074L32.4932 79.6536L32.2016 79.6558L32.0599 79.9107L30.2907 83.0938L30.2896 83.0957C30.2747 83.1228 30.1298 83.3976 29.939 83.8407L29.6358 84.5442L30.4019 84.5385L31.4031 84.5309C31.4114 84.5309 31.4209 84.5336 31.431 84.5437C31.4412 84.5541 31.4484 84.569 31.4486 84.5879C31.4489 84.6299 31.4186 84.6455 31.4039 84.6456L29.9717 84.6563L29.6139 84.659L29.501 84.9986C29.3314 85.5088 29.1675 86.0982 29.0376 86.7505L28.9176 87.3528L29.5317 87.3482L32.8506 87.3233C32.8601 87.3232 32.8696 87.3263 32.8793 87.336C32.8891 87.3459 32.8966 87.3606 32.8969 87.3801M39.1886 98.5407L38.6886 98.5432C38.6886 98.5436 38.6886 98.5441 38.6886 98.5445M39.1886 98.5407L38.6886 98.5458C38.6886 98.5454 38.6886 98.545 38.6886 98.5445M39.1886 98.5407C39.1901 98.8495 38.9477 99.1007 38.6461 99.103L52.6049 100.47L40.1522 100.594L40.1216 100.594L40.0911 100.591C39.8511 100.564 38.3752 100.357 36.535 99.5769L36.7267 98.6166L38.6424 98.603C38.6424 98.603 38.6424 98.603 38.6424 98.603C38.6574 98.6028 38.6882 98.5877 38.6886 98.5445M38.6886 98.5445C38.6881 98.525 38.6806 98.5106 38.6712 98.5011C38.6619 98.4918 38.6524 98.4883 38.6415 98.4884L34.64 98.5184L34.4918 98.5195L34.3669 98.4396C33.6306 97.9687 32.8896 97.3955 32.1843 96.7023L31.3219 95.8548L32.531 95.8457L37.1964 95.8107C37.2131 95.8105 37.2415 95.7941 37.2411 95.7552L37.2411 95.7525C37.241 95.7338 37.2339 95.7192 37.2238 95.7089C37.2137 95.6988 37.2041 95.696 37.1956 95.696L31.5411 95.7385L31.2984 95.7403L31.1469 95.5508C30.7266 95.0252 30.3276 94.4476 29.9664 93.8052L29.5511 93.0665L30.3985 93.0602L35.7473 93.02C35.7631 93.0199 35.7931 93.004 35.7928 92.9624C35.7925 92.9207 35.7623 92.9053 35.7464 92.9054L29.8849 92.9494L29.5384 92.952L29.4143 92.6284C29.1873 92.0363 29.0252 91.4393 28.9272 90.8468L28.8318 90.2696L29.4168 90.2652L34.2998 90.2285C34.3087 90.2285 34.3182 90.2254 34.3278 90.2154C34.3377 90.2052 34.3446 90.1905 34.3444 90.1717L34.3444 90.1704C34.3442 90.1306 34.3154 90.1141 34.298 90.1139L34.299 90.1139L34.2952 89.6143L34.2976 90.1139L29.3117 90.1522L28.8307 90.1559L28.8084 89.6754C28.7802 89.0658 28.802 88.4744 28.8628 87.9097L28.9106 87.4666L29.3562 87.4633L32.8514 87.4371L32.8528 87.4371C32.8614 87.437 32.8706 87.4341 32.88 87.4243C32.8897 87.4143 32.8969 87.3995 32.8969 87.3801M32.8969 87.3801C32.8969 87.3803 32.8969 87.3805 32.8969 87.3807L33.3969 87.3756L32.8969 87.3794C32.8969 87.3796 32.8969 87.3798 32.8969 87.3801ZM35.8697 52.1472L36.0142 52.5174L41.9285 67.6756C41.9289 67.6765 41.9293 67.6775 41.9297 67.6784C41.9703 67.7805 41.9952 67.8937 41.9873 68.014C41.9791 68.1387 41.9382 68.2335 41.9025 68.2965C41.7843 68.5075 41.574 68.6327 41.3876 68.687C41.1851 68.7461 40.9235 68.748 40.6792 68.6077L40.6772 68.6065L39.9201 68.1668C39.92 68.1667 39.9199 68.1667 39.9199 68.1666C39.7963 68.0953 39.4862 67.9916 39.132 68.0584C38.8061 68.1199 38.3817 68.337 38.0086 69.0085L38.0086 69.0086L30.2144 83.0343L30.2141 83.0349C30.1263 83.1923 28.505 86.1754 28.6599 89.6476L27.7271 89.9194L17.8599 72.7814L17.8553 72.7735L17.8554 72.7734C16.4837 70.2871 16.586 67.6287 17.0123 65.623C17.4391 63.6151 18.2023 62.2027 18.2317 62.1499M35.8697 52.1472L18.2317 62.1499M35.8697 52.1472L35.4765 52.2044L19.279 54.5587C19.0888 54.5833 18.9604 54.6866 18.8936 54.7547C18.8286 54.8209 18.7872 54.8882 18.7647 54.9305C18.694 55.0595 18.6599 55.1904 18.646 55.3004C18.6333 55.4018 18.6325 55.5281 18.6671 55.6459L18.7235 55.8377L18.8965 55.9378L19.5133 56.2945C19.5134 56.2946 19.5135 56.2946 19.5136 56.2946C20.0717 56.6184 20.3015 57.052 20.3671 57.475C20.4358 57.9182 20.3254 58.3715 20.1572 58.6838M35.8697 52.1472L20.1572 58.6838M18.2317 62.1499L20.1572 58.6838M18.2317 62.1499L20.1572 58.6838M18.6934 54.8601L18.6936 54.8596C18.8373 54.6003 19.0518 54.4675 19.2646 54.4464L19.2759 54.4453L19.2872 54.4436L35.8913 52.0295C35.8914 52.0295 35.8914 52.0295 35.8915 52.0295C35.9064 52.0274 35.9281 52.0352 35.9384 52.0615L35.9386 52.0621L42.0143 67.6306C42.0144 67.6308 42.0144 67.6309 42.0145 67.631C42.1171 67.8959 42.0967 68.1491 41.9803 68.3581L41.9802 68.3583C41.7353 68.7986 41.1016 68.9763 40.6414 68.7093L40.6403 68.7086L39.8817 68.2709L39.8743 68.2667L39.8667 68.2627C39.7325 68.1912 39.4408 68.0806 39.0764 68.1785C38.7041 68.2786 38.3654 68.5665 38.0848 69.0714L38.4747 69.2881L38.0848 69.0714L32.6823 78.7939L32.266 79.5432L33.1231 79.5367L51.9684 79.3952C53.0605 79.387 53.5406 79.8968 53.7678 80.2925L53.7681 80.293C54.0251 80.7394 54.035 81.1868 54.0352 81.2098L54.166 98.8007C54.1645 98.8722 54.1404 99.3763 53.8868 99.833C53.6173 100.318 53.1762 100.58 52.6082 100.584L52.6069 100.584L40.1247 100.708L40.1181 100.707C39.8601 100.683 33.2952 99.9779 29.8706 93.8366L29.8684 93.83L29.8431 93.7863L29.805 93.7205L29.8046 93.7197L17.7835 72.8425C16.4154 70.3608 16.4633 67.7451 16.887 65.6896C17.3105 63.635 18.1007 62.1859 18.1563 62.0853C18.1564 62.0852 18.1564 62.0851 18.1565 62.085L20.0817 58.6216L20.0853 58.6151L20.0887 58.6085C20.1634 58.4643 20.3213 58.1126 20.3065 57.6913C20.2902 57.2284 20.0655 56.7394 19.4763 56.3978L19.4762 56.3978L18.8322 56.0245C18.8322 56.0245 18.8322 56.0245 18.8322 56.0245C18.8321 56.0245 18.8321 56.0245 18.8321 56.0245C18.6909 55.9425 18.5909 55.7889 18.5597 55.5626C18.5278 55.3316 18.5774 55.069 18.6934 54.8601Z" stroke="white"/>
</g>
<path d="M137 10L137 117" stroke="white" stroke-width="3" stroke-linecap="round"/>
<defs>
<filter id="filter0_d_535_29" x="56.4674" y="47.4043" width="50.3637" height="59.0872" filterUnits="userSpaceOnUse" color-interpolation-filters="sRGB">
<feFlood flood-opacity="0" result="BackgroundImageFix"/>
<feColorMatrix in="SourceAlpha" type="matrix" values="0 0 0 0 0 0 0 0 0 0 0 0 0 0 0 0 0 0 127 0" result="hardAlpha"/>
<feOffset dy="4"/>
<feGaussianBlur stdDeviation="2"/>
<feComposite in2="hardAlpha" operator="out"/>
<feColorMatrix type="matrix" values="0 0 0 0 0 0 0 0 0 0 0 0 0 0 0 0 0 0 0.3 0"/>
<feBlend mode="normal" in2="BackgroundImageFix" result="effect1_dropShadow_535_29"/>
<feBlend mode="normal" in="SourceGraphic" in2="effect1_dropShadow_535_29" result="shape"/>
</filter>
<filter id="filter1_d_535_29" x="23.8107" y="26.1152" width="65.0541" height="37.1038" filterUnits="userSpaceOnUse" color-interpolation-filters="sRGB">
<feFlood flood-opacity="0" result="BackgroundImageFix"/>
<feColorMatrix in="SourceAlpha" type="matrix" values="0 0 0 0 0 0 0 0 0 0 0 0 0 0 0 0 0 0 127 0" result="hardAlpha"/>
<feOffset dy="4"/>
<feGaussianBlur stdDeviation="2"/>
<feComposite in2="hardAlpha" operator="out"/>
<feColorMatrix type="matrix" values="0 0 0 0 0 0 0 0 0 0 0 0 0 0 0 0 0 0 0.25 0"/>
<feBlend mode="normal" in2="BackgroundImageFix" result="effect1_dropShadow_535_29"/>
<feBlend mode="normal" in="SourceGraphic" in2="effect1_dropShadow_535_29" result="shape"/>
</filter>
<filter id="filter2_d_535_29" x="12.1238" y="51.5291" width="46.5422" height="57.679" filterUnits="userSpaceOnUse" color-interpolation-filters="sRGB">
<feFlood flood-opacity="0" result="BackgroundImageFix"/>
<feColorMatrix in="SourceAlpha" type="matrix" values="0 0 0 0 0 0 0 0 0 0 0 0 0 0 0 0 0 0 127 0" result="hardAlpha"/>
<feOffset dy="4"/>
<feGaussianBlur stdDeviation="2"/>
<feComposite in2="hardAlpha" operator="out"/>
<feColorMatrix type="matrix" values="0 0 0 0 0 0 0 0 0 0 0 0 0 0 0 0 0 0 0.25 0"/>
<feBlend mode="normal" in2="BackgroundImageFix" result="effect1_dropShadow_535_29"/>
<feBlend mode="normal" in="SourceGraphic" in2="effect1_dropShadow_535_29" result="shape"/>
</filter>
</defs>
</svg>
