<?xml version="1.0" encoding="UTF-8"?>
<svg id="Layer_1" data-name="Layer 1" xmlns="http://www.w3.org/2000/svg" xmlns:xlink="http://www.w3.org/1999/xlink" viewBox="0 0 401.87 110.5">
  <defs>
    <style>
      .cls-1 {
        fill: #fff;
      }

      .cls-2 {
        stroke: #014830;
        stroke-linecap: round;
        stroke-width: 3px;
      }

      .cls-2, .cls-3 {
        fill: none;
      }

      .cls-3 {
        stroke: #fff;
      }

      .cls-4 {
        filter: url(#drop-shadow-3);
      }

      .cls-5 {
        filter: url(#drop-shadow-1);
      }

      .cls-6 {
        fill: #014830;
      }

      .cls-7 {
        filter: url(#drop-shadow-2);
      }
    </style>
    <filter id="drop-shadow-1" filterUnits="userSpaceOnUse">
      <feOffset dx="7" dy="7"/>
      <feGaussianBlur result="blur" stdDeviation="5"/>
      <feFlood flood-color="#000" flood-opacity=".25"/>
      <feComposite in2="blur" operator="in"/>
      <feComposite in="SourceGraphic"/>
    </filter>
    <filter id="drop-shadow-2" filterUnits="userSpaceOnUse">
      <feOffset dx="7" dy="7"/>
      <feGaussianBlur result="blur-2" stdDeviation="5"/>
      <feFlood flood-color="#000" flood-opacity=".25"/>
      <feComposite in2="blur-2" operator="in"/>
      <feComposite in="SourceGraphic"/>
    </filter>
    <filter id="drop-shadow-3" filterUnits="userSpaceOnUse">
      <feOffset dx="7" dy="7"/>
      <feGaussianBlur result="blur-3" stdDeviation="5"/>
      <feFlood flood-color="#000" flood-opacity=".25"/>
      <feComposite in2="blur-3" operator="in"/>
      <feComposite in="SourceGraphic"/>
    </filter>
  </defs>
  <path class="cls-6" d="M191.7,41.7c-.43,0-.8-.18-1.1-.55l-14.2-17.85,2.35-2.35,14.3,18.1c.23,.33,.35,.68,.35,1.05,0,.53-.2,.93-.6,1.2-.37,.27-.73,.4-1.1,.4Zm-.55-35.1c.4,0,.73,.15,1,.45,.3,.3,.45,.63,.45,1,0,.4-.15,.75-.45,1.05l-22.7,21.25-.4-3.4,21-19.85c.33-.33,.7-.5,1.1-.5Zm-22.9,34.9c-.47,0-.85-.15-1.15-.45-.27-.3-.4-.67-.4-1.1V8.05c0-.43,.15-.8,.45-1.1,.3-.3,.68-.45,1.15-.45,.43,0,.8,.15,1.1,.45,.3,.3,.45,.67,.45,1.1v31.9c-.03,.43-.2,.8-.5,1.1-.3,.3-.67,.45-1.1,.45Zm61.88-17.5c0,2.63-.42,5.05-1.25,7.25-.8,2.17-1.95,4.07-3.45,5.7-1.5,1.6-3.28,2.85-5.35,3.75-2.03,.87-4.27,1.3-6.7,1.3s-4.68-.43-6.75-1.3c-2.03-.9-3.8-2.15-5.3-3.75-1.5-1.63-2.67-3.53-3.5-5.7-.8-2.2-1.2-4.62-1.2-7.25s.4-5.03,1.2-7.2c.83-2.2,2-4.1,3.5-5.7,1.5-1.63,3.27-2.88,5.3-3.75,2.07-.9,4.32-1.35,6.75-1.35s4.67,.45,6.7,1.35c2.07,.87,3.85,2.12,5.35,3.75,1.5,1.6,2.65,3.5,3.45,5.7,.83,2.17,1.25,4.57,1.25,7.2Zm-3.2,0c0-2.97-.58-5.57-1.75-7.8-1.13-2.27-2.72-4.03-4.75-5.3-2.03-1.27-4.38-1.9-7.05-1.9s-4.98,.63-7.05,1.9c-2.03,1.27-3.63,3.03-4.8,5.3-1.13,2.23-1.7,4.83-1.7,7.8s.57,5.58,1.7,7.85c1.17,2.23,2.77,3.98,4.8,5.25,2.07,1.27,4.42,1.9,7.05,1.9s5.02-.63,7.05-1.9c2.03-1.27,3.62-3.02,4.75-5.25,1.17-2.27,1.75-4.88,1.75-7.85Zm19.93,18c-2.53,.03-4.73-.37-6.6-1.2-1.87-.83-3.65-2.08-5.35-3.75-.17-.13-.32-.3-.45-.5-.1-.2-.15-.43-.15-.7,0-.4,.15-.77,.45-1.1,.33-.33,.7-.5,1.1-.5s.77,.17,1.1,.5c1.3,1.4,2.77,2.47,4.4,3.2,1.67,.73,3.45,1.1,5.35,1.1,1.6,0,3.02-.25,4.25-.75,1.27-.5,2.27-1.22,3-2.15,.73-.93,1.1-2.02,1.1-3.25,0-1.53-.42-2.77-1.25-3.7-.83-.97-1.93-1.75-3.3-2.35-1.37-.63-2.88-1.2-4.55-1.7-1.37-.4-2.67-.85-3.9-1.35-1.23-.53-2.33-1.17-3.3-1.9-.97-.77-1.72-1.7-2.25-2.8-.53-1.1-.8-2.43-.8-4,0-1.77,.47-3.33,1.4-4.7,.93-1.37,2.25-2.43,3.95-3.2,1.73-.8,3.73-1.2,6-1.2,1.97,0,3.85,.33,5.65,1,1.83,.67,3.28,1.65,4.35,2.95,.5,.53,.75,1.02,.75,1.45,0,.33-.17,.67-.5,1-.33,.33-.7,.5-1.1,.5-.33,0-.62-.12-.85-.35-.57-.7-1.28-1.32-2.15-1.85-.87-.57-1.83-1-2.9-1.3-1.03-.3-2.12-.45-3.25-.45-1.57,0-2.98,.25-4.25,.75-1.23,.47-2.22,1.15-2.95,2.05-.7,.9-1.05,1.98-1.05,3.25,0,1.4,.4,2.55,1.2,3.45,.8,.9,1.85,1.65,3.15,2.25,1.3,.57,2.68,1.1,4.15,1.6,1.43,.4,2.8,.87,4.1,1.4,1.33,.5,2.5,1.13,3.5,1.9,1.03,.77,1.83,1.73,2.4,2.9,.6,1.17,.9,2.63,.9,4.4s-.48,3.23-1.45,4.6c-.97,1.37-2.3,2.45-4,3.25-1.67,.8-3.63,1.22-5.9,1.25Zm57.65-32.9c.4,.27,.63,.62,.7,1.05,.07,.4-.03,.8-.3,1.2-.23,.3-.53,.47-.9,.5-.37,.03-.72-.03-1.05-.2-1.27-.83-2.63-1.48-4.1-1.95-1.43-.47-2.98-.7-4.65-.7-2.03,0-3.93,.37-5.7,1.1-1.73,.7-3.25,1.73-4.55,3.1-1.3,1.33-2.32,2.92-3.05,4.75-.7,1.83-1.05,3.85-1.05,6.05s.37,4.33,1.1,6.2c.73,1.83,1.75,3.42,3.05,4.75,1.33,1.33,2.87,2.35,4.6,3.05s3.6,1.05,5.6,1.05c1.63,0,3.17-.23,4.6-.7,1.47-.47,2.83-1.1,4.1-1.9,.33-.2,.68-.27,1.05-.2,.4,.03,.72,.22,.95,.55,.3,.37,.4,.77,.3,1.2-.07,.4-.28,.72-.65,.95-.83,.53-1.82,1.03-2.95,1.5-1.13,.47-2.33,.83-3.6,1.1-1.27,.3-2.53,.45-3.8,.45-2.4,0-4.65-.43-6.75-1.3s-3.97-2.08-5.6-3.65c-1.63-1.6-2.92-3.5-3.85-5.7-.9-2.2-1.35-4.65-1.35-7.35s.45-4.98,1.35-7.15c.9-2.2,2.15-4.1,3.75-5.7,1.6-1.6,3.47-2.85,5.6-3.75,2.13-.9,4.42-1.35,6.85-1.35,1.9,0,3.73,.27,5.5,.8,1.77,.53,3.37,1.28,4.8,2.25Zm18.82,1.25l-12.15,30.2c-.13,.33-.32,.58-.55,.75-.23,.17-.5,.25-.8,.25-.47,0-.82-.12-1.05-.35-.23-.27-.37-.58-.4-.95-.03-.17-.02-.37,.05-.6l13.2-32.3c.17-.37,.37-.62,.6-.75,.27-.17,.57-.25,.9-.25s.62,.1,.85,.3c.27,.17,.47,.4,.6,.7l13.15,32.15c.07,.2,.1,.4,.1,.6,0,.47-.15,.83-.45,1.1-.3,.23-.65,.35-1.05,.35-.33,0-.63-.08-.9-.25-.23-.2-.42-.45-.55-.75l-12.45-30.4,.9,.2Zm-9.25,21.05l1.25-2.95h15.5l.6,2.95h-17.35Zm37.83,10.1c-.47,0-.85-.15-1.15-.45-.27-.3-.4-.65-.4-1.05V8.15h3.1v31.85c0,.4-.15,.75-.45,1.05-.3,.3-.67,.45-1.1,.45Zm-11.9-32.15c-.4,0-.75-.13-1.05-.4-.3-.27-.45-.62-.45-1.05,0-.4,.15-.73,.45-1,.3-.27,.65-.4,1.05-.4h23.8c.4,0,.75,.13,1.05,.4,.3,.27,.45,.62,.45,1.05s-.15,.78-.45,1.05c-.3,.23-.65,.35-1.05,.35h-23.8ZM168.4,106.5c-.5,0-.92-.15-1.25-.45-.3-.3-.45-.65-.45-1.05v-32c0-.4,.15-.75,.45-1.05,.3-.3,.65-.45,1.05-.45h13.5c1.9,0,3.6,.42,5.1,1.25,1.5,.8,2.67,1.92,3.5,3.35,.87,1.43,1.3,3.05,1.3,4.85,0,1.47-.27,2.82-.8,4.05-.53,1.23-1.28,2.28-2.25,3.15-.97,.83-2.05,1.45-3.25,1.85l-1.75-.55c1.23,.1,2.38,.5,3.45,1.2,1.07,.67,1.92,1.6,2.55,2.8,.67,1.17,1.02,2.58,1.05,4.25,.03,1.43,.1,2.55,.2,3.35,.13,.8,.32,1.4,.55,1.8,.23,.4,.53,.72,.9,.95,.33,.2,.55,.48,.65,.85,.13,.37,.1,.72-.1,1.05-.13,.27-.33,.47-.6,.6-.23,.1-.48,.15-.75,.15s-.53-.07-.8-.2c-.47-.27-.95-.68-1.45-1.25-.47-.57-.87-1.4-1.2-2.5-.3-1.1-.45-2.63-.45-4.6,0-1.3-.22-2.37-.65-3.2-.4-.83-.93-1.47-1.6-1.9-.63-.47-1.35-.78-2.15-.95-.77-.2-1.5-.3-2.2-.3h-11.65l.55-.7v14.15c0,.4-.13,.75-.4,1.05-.27,.3-.62,.45-1.05,.45Zm.9-17.7h12.55c1.13-.1,2.2-.47,3.2-1.1,1-.67,1.8-1.57,2.4-2.7,.63-1.13,.95-2.45,.95-3.95,0-1.9-.65-3.47-1.95-4.7-1.27-1.27-2.93-1.9-5-1.9h-11.95l.35-.7v15.75l-.55-.7Zm32.4-17.3h18.35c.4,0,.75,.15,1.05,.45,.3,.27,.45,.62,.45,1.05s-.15,.78-.45,1.05c-.3,.27-.65,.4-1.05,.4h-17.2l.5-.85v14.05l-.55-.65h15c.4,0,.75,.15,1.05,.45,.3,.3,.45,.65,.45,1.05,0,.43-.15,.78-.45,1.05-.3,.27-.65,.4-1.05,.4h-14.9l.45-.5v14.4l-.25-.3h16.95c.4,0,.75,.15,1.05,.45,.3,.3,.45,.65,.45,1.05,0,.43-.15,.78-.45,1.05-.3,.27-.65,.4-1.05,.4h-18.35c-.4,0-.75-.15-1.05-.45-.3-.3-.45-.65-.45-1.05v-32c0-.4,.15-.75,.45-1.05,.3-.3,.65-.45,1.05-.45Zm52.47,2.6c.4,.27,.63,.62,.7,1.05,.07,.4-.03,.8-.3,1.2-.23,.3-.53,.47-.9,.5-.37,.03-.72-.03-1.05-.2-1.27-.83-2.63-1.48-4.1-1.95-1.43-.47-2.98-.7-4.65-.7-2.03,0-3.93,.37-5.7,1.1-1.73,.7-3.25,1.73-4.55,3.1-1.3,1.33-2.32,2.92-3.05,4.75-.7,1.83-1.05,3.85-1.05,6.05s.37,4.33,1.1,6.2c.73,1.83,1.75,3.42,3.05,4.75,1.33,1.33,2.87,2.35,4.6,3.05,1.73,.7,3.6,1.05,5.6,1.05,1.63,0,3.17-.23,4.6-.7,1.47-.47,2.83-1.1,4.1-1.9,.33-.2,.68-.27,1.05-.2,.4,.03,.72,.22,.95,.55,.3,.37,.4,.77,.3,1.2-.07,.4-.28,.72-.65,.95-.83,.53-1.82,1.03-2.95,1.5-1.13,.47-2.33,.83-3.6,1.1-1.27,.3-2.53,.45-3.8,.45-2.4,0-4.65-.43-6.75-1.3-2.1-.87-3.97-2.08-5.6-3.65-1.63-1.6-2.92-3.5-3.85-5.7-.9-2.2-1.35-4.65-1.35-7.35s.45-4.98,1.35-7.15c.9-2.2,2.15-4.1,3.75-5.7s3.47-2.85,5.6-3.75c2.13-.9,4.42-1.35,6.85-1.35,1.9,0,3.73,.27,5.5,.8,1.77,.53,3.37,1.28,4.8,2.25Zm27.97-2.8c.43,0,.78,.17,1.05,.5,.3,.3,.45,.63,.45,1,0,.17-.03,.33-.1,.5-.03,.13-.1,.28-.2,.45l-11.75,16.15,.6-1.95v17.05c0,.4-.15,.75-.45,1.05-.3,.3-.67,.45-1.1,.45s-.8-.15-1.1-.45c-.27-.3-.4-.65-.4-1.05v-16.7l.25,1.2-11.45-15.65c-.13-.17-.23-.33-.3-.5-.07-.2-.1-.38-.1-.55,0-.43,.17-.78,.5-1.05,.37-.3,.73-.45,1.1-.45,.5,0,.92,.23,1.25,.7l10.75,14.65-.75-.1,10.45-14.55c.33-.47,.77-.7,1.3-.7Zm31.31,2.8c.4,.27,.63,.62,.7,1.05,.07,.4-.03,.8-.3,1.2-.23,.3-.53,.47-.9,.5-.37,.03-.72-.03-1.05-.2-1.27-.83-2.63-1.48-4.1-1.95-1.43-.47-2.98-.7-4.65-.7-2.03,0-3.93,.37-5.7,1.1-1.73,.7-3.25,1.73-4.55,3.1-1.3,1.33-2.32,2.92-3.05,4.75-.7,1.83-1.05,3.85-1.05,6.05s.37,4.33,1.1,6.2c.73,1.83,1.75,3.42,3.05,4.75,1.33,1.33,2.87,2.35,4.6,3.05,1.73,.7,3.6,1.05,5.6,1.05,1.63,0,3.17-.23,4.6-.7,1.47-.47,2.83-1.1,4.1-1.9,.33-.2,.68-.27,1.05-.2,.4,.03,.72,.22,.95,.55,.3,.37,.4,.77,.3,1.2-.07,.4-.28,.72-.65,.95-.83,.53-1.82,1.03-2.95,1.5-1.13,.47-2.33,.83-3.6,1.1-1.27,.3-2.53,.45-3.8,.45-2.4,0-4.65-.43-6.75-1.3-2.1-.87-3.97-2.08-5.6-3.65-1.63-1.6-2.92-3.5-3.85-5.7-.9-2.2-1.35-4.65-1.35-7.35s.45-4.98,1.35-7.15c.9-2.2,2.15-4.1,3.75-5.7,1.6-1.6,3.47-2.85,5.6-3.75,2.13-.9,4.42-1.35,6.85-1.35,1.9,0,3.73,.27,5.5,.8,1.77,.53,3.37,1.28,4.8,2.25Zm26.47,29.45c.4,0,.75,.15,1.05,.45,.3,.27,.45,.6,.45,1,0,.43-.15,.8-.45,1.1-.3,.27-.65,.4-1.05,.4h-17.85c-.43,0-.8-.15-1.1-.45-.27-.3-.4-.65-.4-1.05v-32c0-.4,.15-.75,.45-1.05,.3-.3,.68-.45,1.15-.45,.4,0,.75,.15,1.05,.45,.33,.3,.5,.65,.5,1.05v31.4l-.95-.85h17.15Zm8.76-32.05h18.35c.4,0,.75,.15,1.05,.45,.3,.27,.45,.62,.45,1.05s-.15,.78-.45,1.05-.65,.4-1.05,.4h-17.2l.5-.85v14.05l-.55-.65h15c.4,0,.75,.15,1.05,.45,.3,.3,.45,.65,.45,1.05,0,.43-.15,.78-.45,1.05s-.65,.4-1.05,.4h-14.9l.45-.5v14.4l-.25-.3h16.95c.4,0,.75,.15,1.05,.45s.45,.65,.45,1.05c0,.43-.15,.78-.45,1.05s-.65,.4-1.05,.4h-18.35c-.4,0-.75-.15-1.05-.45-.3-.3-.45-.65-.45-1.05v-32c0-.4,.15-.75,.45-1.05,.3-.3,.65-.45,1.05-.45Zm28.62,35c-.5,0-.92-.15-1.25-.45-.3-.3-.45-.65-.45-1.05v-32c0-.4,.15-.75,.45-1.05,.3-.3,.65-.45,1.05-.45h13.5c1.9,0,3.6,.42,5.1,1.25,1.5,.8,2.67,1.92,3.5,3.35,.87,1.43,1.3,3.05,1.3,4.85,0,1.47-.27,2.82-.8,4.05-.53,1.23-1.28,2.28-2.25,3.15-.97,.83-2.05,1.45-3.25,1.85l-1.75-.55c1.23,.1,2.38,.5,3.45,1.2,1.07,.67,1.92,1.6,2.55,2.8,.67,1.17,1.02,2.58,1.05,4.25,.03,1.43,.1,2.55,.2,3.35,.13,.8,.32,1.4,.55,1.8,.23,.4,.53,.72,.9,.95,.33,.2,.55,.48,.65,.85,.13,.37,.1,.72-.1,1.05-.13,.27-.33,.47-.6,.6-.23,.1-.48,.15-.75,.15s-.53-.07-.8-.2c-.47-.27-.95-.68-1.45-1.25-.47-.57-.87-1.4-1.2-2.5-.3-1.1-.45-2.63-.45-4.6,0-1.3-.22-2.37-.65-3.2-.4-.83-.93-1.47-1.6-1.9-.63-.47-1.35-.78-2.15-.95-.77-.2-1.5-.3-2.2-.3h-11.65l.55-.7v14.15c0,.4-.13,.75-.4,1.05-.27,.3-.62,.45-1.05,.45Zm.9-17.7h12.55c1.13-.1,2.2-.47,3.2-1.1,1-.67,1.8-1.57,2.4-2.7,.63-1.13,.95-2.45,.95-3.95,0-1.9-.65-3.47-1.95-4.7-1.27-1.27-2.93-1.9-5-1.9h-11.95l.35-.7v15.75l-.55-.7Z"/>
  <rect class="cls-6" y=".5" width="112" height="110" rx="18" ry="18"/>
  <g class="cls-5">
    <path class="cls-1" d="M80.83,80.64c-2.61,.63-5.09,1.28-7.59,1.8-1.32,.28-1.82,1.43-2.63,2.26-.23,.24-.04,.51,.1,.76,.38,.67,.77,1.34,1.13,2.03,.72,1.41,.19,2.59-1.12,2.5-2.76-.18-5.4-1.21-7.96-2.75-.71-.43-1.41-.82-1.88-1.67-.27-.5-.42-1-.41-1.56,.07-2.65,.96-4.74,2.57-6.33,.5-.49,1.06-.49,1.71,.11,.71,.65,.75-.24,1.06-.48,.37-.29,.06-.53-.16-.77-.32-.36-.45-.81-.43-1.29,.08-1.58,0-3.23,.32-4.71,.27-1.24,.53-2.55,.95-3.67,.45-1.18,1.26-2.21,2.12-3.07,.85-.84,1.63-1.75,2.24-2.85,.05-.08,.09-.17,.15-.23,1.21-1.01,1.91-2.65,3.11-3.67,.45-.38,.61-1.03,.99-1.47,.58-.68,1.22-1.27,1.79-1.98,.81-1.01,1.44-2.22,2.4-3.09,.48-.44,.95-.8,1.57-.94,2.4-.52,4.79-1.05,7.14-1.75,.38-.11,.76-.26,1.18-.23,.25,.01,.44-.11,.61-.31,.7-.84,1.36-1.64,1.47-3.02,.16-1.95,1-3.5,2.17-4.75,.77-.82,1.3-.83,2.2,.08,1.42,1.42,2.68,3.03,3.88,4.7,1.04,1.44,2.01,2.95,2.85,4.56,.31,.58,.62,1.19,.35,1.83-.31,.71-.81,1.01-1.56,.9-1.01-.15-2.03-.23-3.03-.6-.39-.14-.66-.05-.9,.28-.39,.53-.8,1.03-1.22,1.53-.21,.25-.28,.44,.05,.72,.5,.42,.65,1.03,.6,1.68-.1,1.45-.05,2.96-.36,4.31-.3,1.28-.62,2.58-1,3.81-.35,1.13-1.17,2.04-1.94,2.87-.88,.94-1.73,1.9-2.43,3.05-.27,.45-.6,.85-.99,1.17-.37,.3-.68,.69-.92,1.15-.3,.56-.65,1.06-1.14,1.39-.12,.08-.24,.19-.32,.33-1.12,1.99-2.84,3.31-4.04,5.24-.67,1.06-1.51,2.08-2.69,2.13Zm-8.09-21.18c.14,.07,.22,.12,.3,.15,2.97,1.05,5.94,2.1,8.9,3.15,.73,.26,1.41,.63,2.01,1.25,.58,.6,.85,1.4,.6,1.85-.24,.43-.82,.34-1.51-.26-.5-.43-.99-.87-1.58-1.08-2.65-.95-5.3-1.87-7.95-2.83-2.49-.91-2.07-.52-3.45,1.05-.49,.56-.44,.69,.29,.95,2.86,1.01,5.72,2.02,8.59,3.02,.76,.27,1.46,.69,2.04,1.37,.41,.48,.74,1.11,.42,1.68-.35,.64-.88,.15-1.32-.14-.29-.2-.57-.44-.86-.65-.48-.37-1-.6-1.53-.79-1.04-.35-2.08-.72-3.12-1.09-1.74-.61-3.47-1.24-5.22-1.84-.64-.22-1.23-.16-1.62,.54,1.75,.62,3.47,1.22,5.18,1.83,1.46,.52,2.94,.96,4.39,1.57,2.21,.93,3.57,2.94,4.43,5.47,.19,.56,.31,.71,.66,.25,.7-.92,1.43-1.8,2.14-2.69,3.24-4.07,6.47-8.13,9.71-12.2,.2-.25,.42-.47,.29-.91-.65-2.23-1.74-4.09-3.51-5.26-1.33-.88-2.81-1.14-4.22-1.66-1.82-.67-3.65-1.3-5.47-1.93-.54-.19-1.06-.21-1.48,.36,.14,.07,.21,.11,.29,.14,2.99,1.06,5.98,2.11,8.97,3.16,.71,.25,1.36,.67,1.95,1.24,.55,.54,.8,1.44,.56,1.88-.23,.41-.77,.33-1.45-.28-.63-.56-1.29-.99-2.02-1.24-2.65-.92-5.3-1.87-7.95-2.82-1.64-.59-2.75,.01-3.4,1.87,2.93,1.04,5.85,2.09,8.77,3.12,.88,.31,1.73,.68,2.45,1.45,.49,.53,.74,1.42,.5,1.82-.24,.39-.78,.31-1.4-.23-.53-.46-1.07-.94-1.69-1.16-2.99-1.07-5.98-2.12-8.97-3.19-.44-.16-.86-.14-1.25,.07-.17,.09-.37,.22-.35,.47,.02,.26,.27,.23,.43,.29,2.22,.8,4.45,1.57,6.67,2.39,1.16,.43,2.36,.69,3.44,1.47,.56,.4,1.04,.9,1.18,1.69,.14,.73-.19,1.07-.79,.85-.19-.07-.4-.14-.55-.29-1.12-1.15-2.46-1.5-3.78-1.96-2.25-.8-4.49-1.61-6.74-2.41-.76-.27-1.44-.26-1.98,.53Zm-6.14,14.99c1.15-.85,2.26-.6,3.39-.02,1.66,.85,2.98,2.22,3.97,4.06,.23,.43,.43,.74,.88,.51,2.14-1.05,4.28-2.09,6.42-3.12,.3-.14,.41-.38,.28-.78-.77-2.4-1.96-4.52-4.04-5.39-3.04-1.26-6.14-2.24-9.22-3.3-1.03-.35-1.66,.14-1.69,1.38-.05,2.14,0,4.31,0,6.65Zm31.92-27.21c-.5-1.78-2.3-3.73-3.82-4.15-.57-.16-1.06-.04-1.44,.45-.95,1.2-1.89,2.41-2.85,3.58-.37,.45-.35,.63,.22,.88,1.94,.85,3.47,2.35,4.46,4.59,.21,.48,.33,.36,.54,.1,.85-1.08,1.69-2.16,2.56-3.21,.52-.63,.58-1.37,.33-2.24Zm-3.81,11.3c.09-1.73,.17-3.25,.26-4.78,.02-.4-.03-.78-.21-1.13-1.12-2.26-2.72-3.76-4.78-4.5-.51-.18-1.04-.2-1.53-.03-1.89,.68-3.87,1.04-5.82,1.49-.27,.06-.54,.15-.81,.23,.45,.32,.87,.47,1.29,.62,2.33,.83,4.66,1.67,6.99,2.49,.94,.33,1.72,.97,2.46,1.78,.94,1.04,1.6,2.28,2.16,3.82Zm-20.93,20.83c-.56-1.9-3.24-4.49-4.85-4.72-.36-.05-.6,.12-.82,.4-.75,.96-1.5,1.92-2.27,2.85-.31,.37-.33,.63,.05,1.07,1.41,1.62,2.79,3.29,3.96,5.17,.26,.42,.42,.34,.65,.05,1.04-1.33,2.09-2.65,3.15-3.96,.21-.26,.28-.53,.14-.86Zm-12.95,5.31c.22,.76,.62,1.24,1.12,1.59,.52,.37,1.06,.71,1.61,1.01,2.27,1.27,4.61,2.16,7.03,2.31,.92,.05,1.09-.37,.61-1.36-.58-1.2-1.3-2.29-2.01-3.38-1.42-2.16-2.98-4.18-4.72-5.98-.77-.8-1.25-.8-1.91-.03-.93,1.08-1.45,2.46-1.65,4.04-.08,.62-.22,1.23-.07,1.81Zm14.19-5.32c.68,.17,1.28-.03,1.86-.3,1.57-.76,3.14-1.51,4.69-2.29,.64-.32,1.35-.54,1.84-1.15,4.03-5.04,8.05-10.09,12.07-15.14,.25-.32,.47-.68,.5-1.16,.1-1.42,.2-2.84,.3-4.26,.02-.28,.02-.56-.1-.84-.14-.31-.35-.55-.62-.55-.34,0-.25,.39-.26,.64-.09,1.6-.17,3.2-.26,4.81-.02,.42-.14,.76-.38,1.06-3.61,4.51-7.24,9-10.8,13.57-1.17,1.5-2.45,2.71-4.12,3.38-1.61,.64-3.14,1.49-4.71,2.24Zm16.54-34.34c.51-.65,1.05-1.08,1.29-1.85,.22-.71,.66-1.09,1.33-1.1,.11,0,.27,.05,.3-.17-.13-.22-.29-.43-.37-.67-.16-.46-.04-.77,.38-.78,.58,0,1.17,.86,.96,1.48-.12,.37-.01,.42,.22,.54,1.31,.67,2.29,1.82,3.08,3.21,1.1,1.92,.97,3.14-.44,4.33-.12,.1-.28,.18-.25,.38,.04,.27,.27,.26,.42,.31,.92,.29,1.85,.38,2.77,.47,.86,.09,1.08-.36,.6-1.3-1.88-3.62-4.24-6.78-6.92-9.59-.6-.63-1.07-.6-1.6-.03-.74,.8-1.24,1.79-1.54,2.95-.14,.54-.3,1.07-.23,1.82Zm3.61,16.86c-.25,.02-.32,.19-.42,.31-3.38,4.24-6.75,8.48-10.13,12.71-.5,.63-.92,1.4-1.61,1.76-.47,.24-.61,.58-.43,1.17,.06,.21-.02,.51,.23,.6,.19,.07,.29-.16,.39-.29,1.38-1.72,2.75-3.44,4.12-5.16,2.45-3.07,4.9-6.16,7.37-9.22,.42-.52,.55-1.11,.49-1.88Zm-14.11,18.27c.94-.19,1.31-.84,1.21-2.1-.07-.83-.2-.93-.8-.63-1.33,.66-2.65,1.35-3.99,1.98-.65,.31-1.27,.76-2.03,.65-.72-.11-.94,.19-.97,1.02-.02,.59,.04,.66,.48,.55,2.03-.51,4.06-.99,6.09-1.47Zm-2.24-28.51c1.49,.53,2.9,.95,4.28,1.53,2.52,1.05,5.22,1.29,7.52,3.34,.18,.16,.47,.35,.64,.05,.16-.29,.02-.6-.17-.85-.48-.61-1.05-1.04-1.7-1.27-3.03-1.09-6.06-2.18-9.09-3.25-.55-.19-1.07-.17-1.48,.45Zm-7.09,8.87c1.87,.67,3.69,1.24,5.47,1.96,2.11,.85,4.36,1.08,6.25,2.86,.21,.19,.56,.43,.75,.07,.16-.31-.06-.65-.27-.91-.62-.73-1.37-1.13-2.17-1.4-1.15-.39-2.29-.82-3.43-1.22-1.72-.6-3.44-1.2-5.16-1.78-.54-.18-1.03-.16-1.44,.43Zm1.96-2.47c1.56,.54,3.03,.98,4.47,1.57,2.47,1.02,5.12,1.27,7.38,3.28,.17,.16,.42,.3,.58,.05,.16-.25,.04-.56-.12-.79-.43-.63-.99-1.05-1.61-1.27-3.08-1.12-6.17-2.23-9.26-3.33-.56-.2-1.06-.11-1.44,.49Zm2.02-2.47c1.82,.64,3.57,1.18,5.29,1.87,2.17,.87,4.49,1.1,6.44,2.93,.2,.19,.51,.37,.69,.04,.17-.3-.03-.61-.22-.84-.53-.67-1.19-1.07-1.9-1.33-1.18-.43-2.37-.85-3.56-1.27-1.74-.62-3.47-1.24-5.22-1.83-.56-.19-1.12-.26-1.53,.43Zm-7.09,8.84c2.11,.76,4.16,1.45,6.19,2.23,1.86,.71,3.83,.98,5.48,2.58,.08,.08,.2,.12,.3,.16,.17,.07,.35,.11,.47-.07,.11-.18,.05-.39-.03-.59-.12-.31-.35-.48-.57-.68-.82-.74-1.76-1.01-2.7-1.34-2.43-.86-4.87-1.73-7.3-2.59-.67-.24-1.3-.34-1.84,.31Zm-4.91,13.3c3.33,2.99,5.86,6.79,8.13,10.93,.04-.4-.11-.68-.25-.96-1.8-3.38-3.99-6.38-6.47-9.09-.4-.44-.84-.83-1.4-.89Zm38.75-27.49c.04-.46-.13-.78-.31-1.1-1.86-3.36-4.04-6.41-6.57-9.1-.49-.52-.79-.66-1.13-.64,3.17,2.92,5.73,6.66,8,10.84Zm-36.23,19.67c-.32,.15-.38,.36-.39,.59-.1,1.64-.2,3.29-.29,4.93-.02,.39,.13,.71,.41,.95,.18,.16,.34,.19,.33-.15-.02-2.07-.04-4.13-.06-6.33Z"/>
    <path class="cls-1" d="M77.92,73.44c.26,.92-.19,1.98-.94,2.21-.78,.24-1.74-.44-1.99-1.4-.25-.93,.22-1.97,.97-2.18,.75-.21,1.7,.45,1.96,1.37Z"/>
    <path class="cls-1" d="M63.65,81.05c.46-.1,1,.05,1.51,.34,1.43,.81,2.46,2.1,3.06,3.85,.57,1.68-.25,2.85-1.69,2.48-1.54-.4-3.44-2.59-3.85-4.43-.24-1.11,.12-2,.97-2.23Zm4.1,3.85c-.56-1.41-1.6-2.76-3.2-3.37-1.14-.43-1.73,.22-1.33,1.55,.57,1.93,1.71,3.32,3.35,3.95,1.26,.48,1.75-.23,1.19-2.13Z"/>
  </g>
  <g class="cls-7">
    <path class="cls-1" d="M84.67,27.66c-.34-.6-1.12-.99-1.72-.63l-.64,.38c-.87,.52-1.39-.19-1.52-.4l-1.98-3.43c-.14-.24-3.46-5.89-9.35-5.95l-23.72,.18h-.08s0,0,0,0c-7.21-.07-11.24,5.6-11.41,5.84-.01,.02-.02,.03-.03,.05l-6.13,11.1c-.37,.66-.37,1.38,0,2.02,.33,.57,.84,.9,.91,.94l14.99,8.69c.05,.03,.52,.29,1.15,.29,.6,0,1.45-.25,2.09-1.4l9.3-16.73,5.55,9.64c.49,.85,.09,1.2-.04,1.29l-.75,.45c-.69,.41-.95,1.38-.55,2.06,.2,.35,.53,.57,.94,.63l16.24,2.42c.25,.04,.49-.11,.59-.34l6.25-15.89c.16-.37,.13-.8-.09-1.18Zm-38.39,17.11c-.68,1.22-1.59,.79-1.76,.7l-14.98-8.68s-.33-.21-.52-.55c-.17-.3-.17-.58,.01-.9l6.12-11.07c.12-.17,1-1.33,2.54-2.53l-.95,1.7c-.15,.27-.06,.61,.21,.76,.26,.15,.59,.06,.74-.21l1.98-3.55c.74-.4,1.56-.75,2.47-1.02l-2.3,4.14c-.15,.27-.06,.61,.21,.76,.26,.15,.59,.06,.74-.21l2.79-5.02c.63-.1,1.3-.17,1.99-.16l-2.64,4.75c-.15,.27-.06,.61,.21,.76,.26,.15,.59,.06,.74-.21l2.89-5.2c.58,.09,1.14,.24,1.66,.43l-2.41,4.34c-.15,.27-.06,.61,.2,.76,.26,.15,.59,.06,.74-.21l2.46-4.43c.51,.27,.98,.57,1.4,.89l-1.72,3.1c-.15,.27-.06,.61,.21,.76,.26,.15,.59,.06,.74-.21l1.64-2.95c.47,.43,.88,.85,1.21,1.24l-.71,1.27c-.15,.27-.06,.61,.2,.76,.26,.15,.59,.06,.74-.21l.49-.89c.27,.38,.43,.63,.43,.64l1.82,3.16-9.61,17.29Zm37.47-16.36l-6.1,15.5-15.82-2.35c-.11-.01-.14-.06-.16-.09-.08-.13-.04-.41,.17-.54l.75-.45c.42-.25,1.32-1.25,.42-2.81l-8-13.91c-.1-.18-1.88-3.2-5.03-4.87l19.47-.15c5.26,.06,8.38,5.35,8.41,5.4l1.98,3.44c.46,.77,1.64,1.62,3.01,.8l.61-.37c.06,.01,.18,.09,.26,.22,.01,.02,.06,.11,.02,.18Z"/>
  </g>
  <g class="cls-4">
    <path class="cls-1" d="M18.26,46.12c-.34,.6-.28,1.49,.33,1.84l.64,.37c.87,.51,.54,1.32,.42,1.55l-1.93,3.46c-.13,.24-3.27,6-.37,11.25l12.02,20.88,.04,.07h0c3.55,6.41,10.37,7.14,10.66,7.17,.02,0,.04,0,.06,0l12.48-.12c.75,0,1.35-.36,1.71-1.01,.32-.57,.34-1.19,.34-1.27l-.13-17.6c0-.06-.01-.61-.33-1.16-.3-.53-.94-1.16-2.24-1.15l-18.85,.14,5.4-9.72c.48-.86,.98-.68,1.11-.61l.76,.44c.7,.4,1.64,.15,2.03-.54,.19-.35,.22-.76,.06-1.15l-6.08-15.57c-.09-.24-.34-.38-.58-.35l-16.61,2.41c-.4,.04-.75,.28-.96,.67Zm33.72,25.39c1.37-.01,1.47,1.01,1.47,1.21l.13,17.58s-.01,.4-.2,.73c-.17,.3-.41,.44-.77,.44l-12.45,.12c-.21-.02-1.63-.22-3.42-.98h1.92c.3-.02,.54-.27,.54-.58,0-.31-.25-.55-.55-.55l-4,.03c-.71-.45-1.42-1.01-2.1-1.67l4.67-.04c.3,0,.54-.25,.54-.56,0-.31-.25-.56-.55-.55l-5.65,.04c-.4-.51-.79-1.06-1.14-1.68l5.35-.04c.3,0,.54-.25,.54-.56,0-.31-.25-.56-.55-.55l-5.86,.04c-.22-.56-.37-1.13-.46-1.68l4.88-.04c.3,0,.54-.25,.54-.56,0-.31-.25-.56-.55-.55l-4.99,.04c-.03-.58,0-1.15,.05-1.69l3.5-.03c.3,0,.54-.25,.54-.56,0-.31-.25-.55-.55-.55l-3.32,.02c.13-.63,.28-1.2,.45-1.69h1.43c.3-.01,.54-.26,.54-.57,0-.31-.25-.56-.55-.55h-1c.19-.42,.32-.68,.33-.69l1.77-3.18,19.47-.15h0ZM19.35,46.55l16.2-2.36,5.92,15.16c.04,.1,.02,.15,0,.19-.07,.13-.33,.24-.54,.12l-.76-.44c-.43-.25-1.72-.54-2.6,1.03l-7.79,14.03c-.1,.18-1.78,3.26-1.62,6.88l-9.87-17.14c-2.58-4.68,.35-10.09,.38-10.14l1.93-3.47c.43-.79,.56-2.26-.83-3.06l-.62-.36c-.02-.06-.01-.21,.06-.34,.01-.02,.06-.1,.14-.11Z"/>
    <path class="cls-3" d="M39.19,90.04h-.5m.5,0h-.5s0,0,0,0m0,0s0-.03-.02-.04c0,0-.02-.01-.03-.01l-4,.03h-.15s-.12-.08-.12-.08c-.74-.47-1.48-1.04-2.18-1.74l-.86-.85h1.21s4.67-.04,4.67-.04c.02,0,.05-.02,.04-.06h0s0-.04-.02-.05c-.01-.01-.02-.01-.03-.01l-5.65,.04h-.24s-.15-.19-.15-.19c-.42-.53-.82-1.1-1.18-1.75l-.42-.74h.85s5.35-.05,5.35-.05c.02,0,.05-.02,.05-.06,0-.04-.03-.06-.05-.06l-5.86,.04h-.35s-.12-.32-.12-.32c-.23-.59-.39-1.19-.49-1.78l-.1-.58h.58s4.88-.04,4.88-.04c0,0,.02,0,.03-.01,0-.01,.02-.02,.02-.04h0s-.03-.06-.05-.06h0v-.5s0,.5,0,.5l-4.99,.04h-.48s-.02-.48-.02-.48c-.03-.61,0-1.2,.05-1.77l.05-.44h.45s3.5-.03,3.5-.03h0s.02,0,.03-.01c0-.01,.02-.02,.02-.04m0,0h0s.5,0,.5,0h-.5Zm2.97-35.23l.14,.37,5.91,15.16s0,0,0,0c.04,.1,.07,.22,.06,.34,0,.12-.05,.22-.08,.28-.12,.21-.33,.34-.51,.39-.2,.06-.46,.06-.71-.08h0s-.76-.44-.76-.44c0,0,0,0,0,0-.12-.07-.43-.18-.79-.11-.33,.06-.75,.28-1.12,.95h0s-7.79,14.03-7.79,14.03h0c-.09,.16-1.71,3.14-1.55,6.61l-.93,.27-9.87-17.14h0s0,0,0,0c-1.37-2.49-1.27-5.14-.84-7.15,.43-2.01,1.19-3.42,1.22-3.47m17.64-10l-.39,.06-16.2,2.35c-.19,.02-.32,.13-.39,.2-.07,.07-.11,.13-.13,.18-.07,.13-.1,.26-.12,.37-.01,.1-.01,.23,.02,.35l.06,.19,.17,.1,.62,.36s0,0,0,0c.56,.32,.79,.76,.85,1.18,.07,.44-.04,.9-.21,1.21m-1.93,3.47l1.93-3.47m-1.93,3.47l1.93-3.47m-1.46-3.82h0c.14-.26,.36-.39,.57-.41h.01s.01,0,.01,0l16.6-2.41h0s.04,0,.05,.03h0s6.08,15.57,6.08,15.57c0,0,0,0,0,0,.1,.26,.08,.52-.03,.73h0c-.24,.44-.88,.62-1.34,.35h0s-.76-.44-.76-.44h0s0,0,0,0c-.13-.07-.43-.18-.79-.08-.37,.1-.71,.39-.99,.89l.39,.22-.39-.22-5.4,9.72-.42,.75h.86s18.85-.15,18.85-.15c1.09,0,1.57,.5,1.8,.9h0c.26,.45,.27,.89,.27,.92l.13,17.59c0,.07-.03,.58-.28,1.03-.27,.49-.71,.75-1.28,.75h0l-12.48,.12h0c-.26-.03-6.82-.73-10.25-6.87h0s-.03-.05-.03-.05l-.04-.07h0s-12.02-20.88-12.02-20.88c-1.37-2.48-1.32-5.1-.9-7.15,.42-2.05,1.21-3.5,1.27-3.6,0,0,0,0,0,0l1.93-3.46h0s0-.01,0-.01c.07-.14,.23-.5,.22-.92-.02-.46-.24-.95-.83-1.29h0l-.64-.37h0c-.14-.08-.24-.24-.27-.46-.03-.23,.02-.49,.13-.7Z"/>
  </g>
  <path class="cls-2" d="M137,1.5V108.5"/>
</svg>